<svg width="700" height="302" viewBox="0 0 700 302" fill="none" xmlns="http://www.w3.org/2000/svg">
<g clip-path="url(#clip0_61_71)">
<path fill-rule="evenodd" clip-rule="evenodd" d="M29.8085 89H55.3586V107.6H39.3898C37.3836 108.87 35.8329 110.743 34.9611 112.95C34.3767 114.327 33.9521 115.9 33.6871 117.671C33.4585 119.263 33.3482 120.871 33.3571 122.48H51.81V141.08H33.3571V213H9.75872V141.08H0V122.48H9.75872C9.69236 117.596 10.4944 112.738 12.1274 108.133C14.7901 100.909 19.6955 95.0919 26.8436 90.6811C27.8113 90.0852 28.8002 89.5245 29.8085 89ZM62.101 141.08V122.48H106.104C108.336 123.8 110.454 125.303 112.436 126.974C116.067 130.074 118.628 133.448 120.121 137.094C120.946 139.156 121.589 141.285 122.041 143.459C123.001 147.919 123.485 153.219 123.492 159.358C123.492 159.406 123.492 159.454 123.492 159.503V186.074C123.492 195.876 123.729 204.851 124.202 213H103.975L100.781 206.623C96.1678 210.874 89.662 213 81.2635 213H70.0854C60.0309 206.387 55.0037 196.85 55.0037 184.391C54.9294 179.203 55.9732 174.06 58.0644 169.309C60.3686 164.223 63.9729 159.8 68.8771 156.041C69.3898 155.649 69.911 155.267 70.4402 154.897H87.1188C91.5046 154.905 95.7869 156.228 99.4095 158.697C99.6323 158.844 99.8529 158.995 100.071 159.149V150.291C100.071 145.686 98.0604 142.615 94.0386 141.08H62.101ZM415.899 141.08V122.48H459.902C462.134 123.8 464.253 125.303 466.235 126.974C469.865 130.074 472.426 133.448 473.919 137.094C474.745 139.156 475.387 141.285 475.839 143.459C476.799 147.919 477.283 153.219 477.29 159.358C477.29 159.406 477.29 159.454 477.29 159.503V186.074C477.29 195.876 477.527 204.851 478 213H457.773L454.579 206.623C449.966 210.874 443.46 213 435.062 213H423.883C413.829 206.387 408.802 196.85 408.802 184.391C408.727 179.203 409.771 174.06 411.862 169.309C414.167 164.223 417.771 159.8 422.675 156.041C423.188 155.649 423.709 155.267 424.238 154.897H440.917C445.303 154.905 449.585 156.228 453.208 158.697C453.43 158.844 453.651 158.995 453.869 159.149V150.291C453.869 145.686 451.858 142.615 447.837 141.08H415.899ZM141.235 173.497V141.08H128.993V122.48H141.235V97.8571H164.834V122.48H179.383V141.08H164.834V179.166C164.827 180.837 164.905 182.507 165.066 184.17C165.42 187.669 166.177 190.478 167.337 192.597C167.684 193.237 168.093 193.841 168.56 194.4H179.383V213H154.188C147.919 207.213 144.133 200.954 142.832 194.223C142.411 191.938 142.086 189.636 141.86 187.323C141.444 183.199 141.235 178.591 141.235 173.497ZM382.187 213H358.589V122.48H375.445L379.88 132.046C381.474 129.848 383.402 127.912 385.596 126.31C389.149 123.762 393.427 122.42 397.801 122.48H404.721V146.217H382.187V213ZM243.436 213H204.756C195.855 204.688 190.004 193.636 188.139 181.612C187.37 177.118 186.993 172.565 187.013 168.006C186.998 164.045 187.254 160.088 187.777 156.162C188.431 151.392 189.507 147.014 191.005 143.029C192.801 138.317 195.166 133.841 198.049 129.702C199.787 127.187 201.671 124.776 203.691 122.48H245.21C250.32 128.367 254.083 134.111 256.5 139.712C256.982 140.829 257.419 141.965 257.808 143.117C258.771 146.033 259.501 149.021 259.99 152.052C260.486 155.019 260.826 158.209 261.012 161.621C261.126 163.748 261.181 165.877 261.179 168.006C261.179 187.019 255.265 202.017 243.436 213ZM327.893 213H289.213C280.312 204.688 274.462 193.636 272.597 181.612C271.828 177.118 271.451 172.565 271.47 168.006C271.455 164.045 271.711 160.088 272.235 156.162C272.889 151.392 273.965 147.014 275.462 143.029C277.258 138.317 279.624 133.841 282.506 129.702C284.245 127.187 286.129 124.776 288.148 122.48H329.667C334.777 128.367 338.541 134.111 340.957 139.712C341.44 140.829 341.876 141.965 342.265 143.117C343.228 146.033 343.958 149.021 344.447 152.052C344.943 155.019 345.284 158.209 345.469 161.621C345.583 163.748 345.638 165.877 345.636 168.006C345.636 187.019 339.722 202.017 327.893 213ZM217.353 194.4H230.838C234.022 188.141 236.034 181.353 236.775 174.372C237.079 171.67 237.23 168.953 237.226 166.234C237.226 155.724 235.037 147.339 230.661 141.08H217.353C215.48 143.792 214.055 146.786 213.131 149.948C212.319 152.606 211.735 155.534 211.379 158.731C211.095 161.37 210.957 164.023 210.966 166.677C210.945 170.736 211.271 174.789 211.94 178.792C212.732 183.379 214.007 187.558 215.764 191.328C216.25 192.374 216.781 193.399 217.353 194.4ZM301.811 194.4H315.295C318.479 188.141 320.491 181.353 321.232 174.372C321.537 171.67 321.687 168.953 321.683 166.234C321.683 155.724 319.495 147.339 315.118 141.08H301.811C299.938 143.792 298.512 146.786 297.588 149.948C296.776 152.606 296.193 155.534 295.837 158.731C295.553 161.37 295.415 164.023 295.423 166.677C295.402 170.736 295.728 174.789 296.397 178.792C297.19 183.379 298.464 187.558 300.221 191.328C300.708 192.374 301.238 193.399 301.811 194.4ZM100.249 194.4V172.08H81.2635C79.455 174.339 78.2718 177.032 77.832 179.89C77.6315 181.115 77.533 182.354 77.5375 183.594C77.5375 187.716 78.5796 191.034 80.6638 193.548C80.9094 193.844 81.1687 194.128 81.441 194.4H100.249ZM454.047 194.4V172.08H435.062C433.253 174.339 432.07 177.032 431.63 179.89C431.43 181.115 431.331 182.354 431.336 183.594C431.336 187.716 432.378 191.034 434.462 193.548C434.707 193.844 434.967 194.128 435.239 194.4H454.047Z" fill="white" stroke="white" stroke-width="0.944882" stroke-linecap="round"/>
</g>
<g clip-path="url(#clip1_61_71)">
<mask id="path-2-outside-1_61_71" maskUnits="userSpaceOnUse" x="542.521" y="-2.66016" width="161" height="281" fill="black">
<rect fill="white" x="542.521" y="-2.66016" width="161" height="281"/>
<path d="M699.321 0.339844C699.545 0.451947 699.769 0.564051 700 0.679551C696.622 8.04784 693.235 15.4119 689.814 22.7605C689.539 23.3538 689.539 23.3538 689.257 23.959C686.089 30.7722 682.891 37.5708 679.677 44.3623C679.283 45.1941 678.89 46.0259 678.497 46.8577C675.382 53.4453 672.244 60.0206 669.054 66.5721C667.752 69.2462 666.457 71.9231 665.178 74.6084C663.013 79.1541 660.812 83.6829 658.614 88.2126C658.033 89.4092 657.453 90.6061 656.872 91.803C645.657 114.946 645.657 114.946 640.888 124.394C639.921 126.314 638.965 128.238 638.048 130.183C636.418 133.636 634.737 137.043 632.934 140.409C632.381 141.457 631.829 142.506 631.278 143.555C630.899 144.267 630.515 144.977 630.127 145.684C627.792 149.528 627.792 149.528 627.158 153.806C627.682 154.875 628.279 155.693 629.041 156.605C629.377 157.182 629.702 157.765 630.015 158.354C630.355 158.946 630.695 159.538 631.036 160.13C632.806 163.229 634.503 166.36 636.171 169.514C637.757 172.511 639.366 175.489 641.052 178.432C643.181 182.152 645.178 185.939 647.174 189.732C648.765 192.754 650.375 195.764 652.016 198.759C653.909 202.213 655.77 205.684 657.635 209.153C658.628 211.001 659.622 212.848 660.616 214.695C661.013 215.432 661.409 216.169 661.806 216.906C662.593 218.369 663.381 219.833 664.169 221.296C668.164 228.714 672.144 236.14 676.092 243.584C677.773 246.754 679.461 249.92 681.157 253.082C683.266 257.016 685.365 260.955 687.454 264.9C687.692 265.348 687.929 265.796 688.166 266.243C688.28 266.458 688.394 266.673 688.511 266.895C689.175 268.147 689.844 269.397 690.519 270.644C690.665 270.916 690.812 271.188 690.963 271.468C691.219 271.944 691.478 272.42 691.738 272.894C692.248 273.844 692.531 274.406 692.531 275.503C683.656 275.526 674.784 275.464 665.91 275.377C664.809 275.366 663.709 275.355 662.608 275.345C658.751 275.308 654.895 275.27 651.038 275.231C647.466 275.196 643.894 275.162 640.322 275.128C637.228 275.099 634.134 275.069 631.041 275.038C629.204 275.02 627.368 275.002 625.531 274.985C623.81 274.97 622.088 274.952 620.367 274.934C619.74 274.928 619.113 274.922 618.486 274.917C616.572 274.9 614.658 274.872 612.745 274.824C612.482 274.817 612.219 274.811 611.947 274.805C611.188 274.784 610.43 274.754 609.671 274.721C609.237 274.704 608.804 274.687 608.358 274.67C607.312 274.484 607.312 274.484 606.712 273.925C606.33 273.216 606.146 272.548 605.954 271.766C605.743 271.256 605.525 270.748 605.3 270.244C605.07 269.687 604.841 269.13 604.613 268.572C604.488 268.267 604.363 267.962 604.233 267.648C603.823 266.65 603.414 265.652 603.005 264.654C602.715 263.949 602.426 263.245 602.136 262.541C601.692 261.461 601.247 260.38 600.803 259.299C599.531 256.203 598.25 253.11 596.967 250.018C592.453 239.139 587.955 228.254 583.504 217.349C583.354 216.982 583.204 216.615 583.049 216.236C582.627 215.201 582.204 214.166 581.782 213.131C581.656 212.822 581.53 212.512 581.4 212.194C581.284 211.91 581.169 211.627 581.05 211.335C580.9 210.966 580.9 210.966 580.746 210.589C580.53 210.039 580.338 209.48 580.151 208.92C578.56 211.519 577.074 214.168 575.61 216.84C575.372 217.273 575.134 217.706 574.896 218.139C574.403 219.036 573.91 219.933 573.417 220.83C572.262 222.934 571.103 225.036 569.944 227.137C569.832 227.34 569.72 227.544 569.605 227.753C567.336 231.868 565.059 235.979 562.773 240.085C562.365 240.818 561.957 241.552 561.55 242.286C559.233 246.456 556.88 250.601 554.463 254.715C552.683 257.757 550.972 260.835 549.276 263.925C548.19 265.898 547.076 267.833 545.86 269.728C545.748 269.504 545.636 269.28 545.521 269.049C545.831 268.24 546.164 267.474 546.533 266.692C546.697 266.333 546.697 266.333 546.866 265.968C547.228 265.182 547.595 264.398 547.961 263.613C548.213 263.068 548.465 262.523 548.717 261.978C549.223 260.882 549.731 259.786 550.241 258.691C551.021 257.013 551.795 255.331 552.568 253.649C553.385 251.873 554.206 250.1 555.027 248.326C555.197 247.959 555.367 247.591 555.542 247.213C558.279 241.294 561.046 235.389 563.825 229.49C564.638 227.764 565.449 226.037 566.259 224.309C568.973 218.522 571.723 212.754 574.509 207C575.389 205.179 576.264 203.356 577.138 201.532C577.361 201.068 577.361 201.068 577.588 200.595C578.475 198.741 579.328 196.875 580.151 194.992C580.375 194.992 580.599 194.992 580.83 194.992C584.266 202.229 587.69 209.47 591.046 216.743C591.38 217.468 591.715 218.192 592.05 218.915C595.349 226.052 598.632 233.197 601.894 240.351C602.688 242.09 603.482 243.828 604.278 245.566C605.518 248.277 606.757 250.988 607.993 253.701C608.339 254.459 608.685 255.217 609.031 255.975C609.598 257.217 610.163 258.46 610.727 259.703C610.939 260.169 611.151 260.635 611.364 261.101C611.656 261.74 611.946 262.38 612.235 263.02C612.4 263.382 612.564 263.744 612.734 264.117C613.084 264.972 613.084 264.972 613.084 265.651C613.584 265.639 613.584 265.639 614.094 265.626C621.938 265.43 629.782 265.304 637.629 265.225C637.979 265.222 638.33 265.218 638.691 265.215C642.259 265.179 645.828 265.145 649.397 265.114C658.006 265.039 666.61 264.896 675.215 264.632C671.347 257.309 671.347 257.309 667.407 250.025C665.608 246.746 663.855 243.443 662.105 240.138C660.615 237.323 659.115 234.515 657.582 231.723C655.595 228.102 653.668 224.449 651.74 220.796C650.091 217.673 648.431 214.557 646.76 211.447C644.976 208.127 643.227 204.79 641.498 201.441C640.36 199.246 639.191 197.072 637.996 194.907C635.667 190.682 633.489 186.379 631.294 182.083C631.158 181.818 631.023 181.553 630.883 181.281C630.75 181.02 630.617 180.76 630.48 180.491C629.139 177.871 627.77 175.266 626.393 172.665C625.572 171.108 624.761 169.546 623.949 167.986C622.814 165.808 621.68 163.632 620.538 161.458C620.255 160.92 619.973 160.381 619.692 159.842C619.069 158.651 618.436 157.473 617.754 156.315C617.417 155.733 617.417 155.733 617.073 155.14C616.876 154.812 616.678 154.484 616.474 154.146C615.932 152.625 616.663 151.499 617.33 150.09C617.528 149.708 617.726 149.325 617.93 148.93C618.039 148.72 618.147 148.509 618.259 148.292C618.612 147.609 618.967 146.926 619.323 146.244C619.57 145.767 619.817 145.29 620.064 144.813C621.62 141.817 623.212 138.843 624.842 135.886C626.108 133.582 627.326 131.255 628.532 128.919C630.046 125.988 631.595 123.08 633.183 120.189C634.715 117.394 636.208 114.58 637.699 111.764C639.502 108.358 641.318 104.961 643.17 101.581C644.47 99.2062 645.755 96.8237 647.036 94.4388C648.669 91.398 650.313 88.3627 651.968 85.3334C653.04 83.3709 654.106 81.4054 655.168 79.4379C656.742 76.5249 658.323 73.6171 659.935 70.7251C661.259 68.3504 662.572 65.9701 663.884 63.5891C664.118 63.1647 664.352 62.7403 664.586 62.3158C665.531 60.601 666.476 58.8861 667.421 57.171C670.476 51.6242 673.541 46.0827 676.618 40.5477C677.262 39.3883 677.905 38.2283 678.548 37.0681C683.031 28.978 687.599 20.9377 692.191 12.909C693.056 11.3963 693.921 9.88345 694.786 8.37044C695.13 7.76836 695.474 7.16641 695.819 6.56447C697 4.49725 698.172 2.42552 699.321 0.339844Z"/>
</mask>
<path d="M699.321 0.339844C699.545 0.451947 699.769 0.564051 700 0.679551C696.622 8.04784 693.235 15.4119 689.814 22.7605C689.539 23.3538 689.539 23.3538 689.257 23.959C686.089 30.7722 682.891 37.5708 679.677 44.3623C679.283 45.1941 678.89 46.0259 678.497 46.8577C675.382 53.4453 672.244 60.0206 669.054 66.5721C667.752 69.2462 666.457 71.9231 665.178 74.6084C663.013 79.1541 660.812 83.6829 658.614 88.2126C658.033 89.4092 657.453 90.6061 656.872 91.803C645.657 114.946 645.657 114.946 640.888 124.394C639.921 126.314 638.965 128.238 638.048 130.183C636.418 133.636 634.737 137.043 632.934 140.409C632.381 141.457 631.829 142.506 631.278 143.555C630.899 144.267 630.515 144.977 630.127 145.684C627.792 149.528 627.792 149.528 627.158 153.806C627.682 154.875 628.279 155.693 629.041 156.605C629.377 157.182 629.702 157.765 630.015 158.354C630.355 158.946 630.695 159.538 631.036 160.13C632.806 163.229 634.503 166.36 636.171 169.514C637.757 172.511 639.366 175.489 641.052 178.432C643.181 182.152 645.178 185.939 647.174 189.732C648.765 192.754 650.375 195.764 652.016 198.759C653.909 202.213 655.77 205.684 657.635 209.153C658.628 211.001 659.622 212.848 660.616 214.695C661.013 215.432 661.409 216.169 661.806 216.906C662.593 218.369 663.381 219.833 664.169 221.296C668.164 228.714 672.144 236.14 676.092 243.584C677.773 246.754 679.461 249.92 681.157 253.082C683.266 257.016 685.365 260.955 687.454 264.9C687.692 265.348 687.929 265.796 688.166 266.243C688.28 266.458 688.394 266.673 688.511 266.895C689.175 268.147 689.844 269.397 690.519 270.644C690.665 270.916 690.812 271.188 690.963 271.468C691.219 271.944 691.478 272.42 691.738 272.894C692.248 273.844 692.531 274.406 692.531 275.503C683.656 275.526 674.784 275.464 665.91 275.377C664.809 275.366 663.709 275.355 662.608 275.345C658.751 275.308 654.895 275.27 651.038 275.231C647.466 275.196 643.894 275.162 640.322 275.128C637.228 275.099 634.134 275.069 631.041 275.038C629.204 275.02 627.368 275.002 625.531 274.985C623.81 274.97 622.088 274.952 620.367 274.934C619.74 274.928 619.113 274.922 618.486 274.917C616.572 274.9 614.658 274.872 612.745 274.824C612.482 274.817 612.219 274.811 611.947 274.805C611.188 274.784 610.43 274.754 609.671 274.721C609.237 274.704 608.804 274.687 608.358 274.67C607.312 274.484 607.312 274.484 606.712 273.925C606.33 273.216 606.146 272.548 605.954 271.766C605.743 271.256 605.525 270.748 605.3 270.244C605.07 269.687 604.841 269.13 604.613 268.572C604.488 268.267 604.363 267.962 604.233 267.648C603.823 266.65 603.414 265.652 603.005 264.654C602.715 263.949 602.426 263.245 602.136 262.541C601.692 261.461 601.247 260.38 600.803 259.299C599.531 256.203 598.25 253.11 596.967 250.018C592.453 239.139 587.955 228.254 583.504 217.349C583.354 216.982 583.204 216.615 583.049 216.236C582.627 215.201 582.204 214.166 581.782 213.131C581.656 212.822 581.53 212.512 581.4 212.194C581.284 211.91 581.169 211.627 581.05 211.335C580.9 210.966 580.9 210.966 580.746 210.589C580.53 210.039 580.338 209.48 580.151 208.92C578.56 211.519 577.074 214.168 575.61 216.84C575.372 217.273 575.134 217.706 574.896 218.139C574.403 219.036 573.91 219.933 573.417 220.83C572.262 222.934 571.103 225.036 569.944 227.137C569.832 227.34 569.72 227.544 569.605 227.753C567.336 231.868 565.059 235.979 562.773 240.085C562.365 240.818 561.957 241.552 561.55 242.286C559.233 246.456 556.88 250.601 554.463 254.715C552.683 257.757 550.972 260.835 549.276 263.925C548.19 265.898 547.076 267.833 545.86 269.728C545.748 269.504 545.636 269.28 545.521 269.049C545.831 268.24 546.164 267.474 546.533 266.692C546.697 266.333 546.697 266.333 546.866 265.968C547.228 265.182 547.595 264.398 547.961 263.613C548.213 263.068 548.465 262.523 548.717 261.978C549.223 260.882 549.731 259.786 550.241 258.691C551.021 257.013 551.795 255.331 552.568 253.649C553.385 251.873 554.206 250.1 555.027 248.326C555.197 247.959 555.367 247.591 555.542 247.213C558.279 241.294 561.046 235.389 563.825 229.49C564.638 227.764 565.449 226.037 566.259 224.309C568.973 218.522 571.723 212.754 574.509 207C575.389 205.179 576.264 203.356 577.138 201.532C577.361 201.068 577.361 201.068 577.588 200.595C578.475 198.741 579.328 196.875 580.151 194.992C580.375 194.992 580.599 194.992 580.83 194.992C584.266 202.229 587.69 209.47 591.046 216.743C591.38 217.468 591.715 218.192 592.05 218.915C595.349 226.052 598.632 233.197 601.894 240.351C602.688 242.09 603.482 243.828 604.278 245.566C605.518 248.277 606.757 250.988 607.993 253.701C608.339 254.459 608.685 255.217 609.031 255.975C609.598 257.217 610.163 258.46 610.727 259.703C610.939 260.169 611.151 260.635 611.364 261.101C611.656 261.74 611.946 262.38 612.235 263.02C612.4 263.382 612.564 263.744 612.734 264.117C613.084 264.972 613.084 264.972 613.084 265.651C613.584 265.639 613.584 265.639 614.094 265.626C621.938 265.43 629.782 265.304 637.629 265.225C637.979 265.222 638.33 265.218 638.691 265.215C642.259 265.179 645.828 265.145 649.397 265.114C658.006 265.039 666.61 264.896 675.215 264.632C671.347 257.309 671.347 257.309 667.407 250.025C665.608 246.746 663.855 243.443 662.105 240.138C660.615 237.323 659.115 234.515 657.582 231.723C655.595 228.102 653.668 224.449 651.74 220.796C650.091 217.673 648.431 214.557 646.76 211.447C644.976 208.127 643.227 204.79 641.498 201.441C640.36 199.246 639.191 197.072 637.996 194.907C635.667 190.682 633.489 186.379 631.294 182.083C631.158 181.818 631.023 181.553 630.883 181.281C630.75 181.02 630.617 180.76 630.48 180.491C629.139 177.871 627.77 175.266 626.393 172.665C625.572 171.108 624.761 169.546 623.949 167.986C622.814 165.808 621.68 163.632 620.538 161.458C620.255 160.92 619.973 160.381 619.692 159.842C619.069 158.651 618.436 157.473 617.754 156.315C617.417 155.733 617.417 155.733 617.073 155.14C616.876 154.812 616.678 154.484 616.474 154.146C615.932 152.625 616.663 151.499 617.33 150.09C617.528 149.708 617.726 149.325 617.93 148.93C618.039 148.72 618.147 148.509 618.259 148.292C618.612 147.609 618.967 146.926 619.323 146.244C619.57 145.767 619.817 145.29 620.064 144.813C621.62 141.817 623.212 138.843 624.842 135.886C626.108 133.582 627.326 131.255 628.532 128.919C630.046 125.988 631.595 123.08 633.183 120.189C634.715 117.394 636.208 114.58 637.699 111.764C639.502 108.358 641.318 104.961 643.17 101.581C644.47 99.2062 645.755 96.8237 647.036 94.4388C648.669 91.398 650.313 88.3627 651.968 85.3334C653.04 83.3709 654.106 81.4054 655.168 79.4379C656.742 76.5249 658.323 73.6171 659.935 70.7251C661.259 68.3504 662.572 65.9701 663.884 63.5891C664.118 63.1647 664.352 62.7403 664.586 62.3158C665.531 60.601 666.476 58.8861 667.421 57.171C670.476 51.6242 673.541 46.0827 676.618 40.5477C677.262 39.3883 677.905 38.2283 678.548 37.0681C683.031 28.978 687.599 20.9377 692.191 12.909C693.056 11.3963 693.921 9.88345 694.786 8.37044C695.13 7.76836 695.474 7.16641 695.819 6.56447C697 4.49725 698.172 2.42552 699.321 0.339844Z" fill="white"/>
<path d="M699.321 0.339844C699.545 0.451947 699.769 0.564051 700 0.679551C696.622 8.04784 693.235 15.4119 689.814 22.7605C689.539 23.3538 689.539 23.3538 689.257 23.959C686.089 30.7722 682.891 37.5708 679.677 44.3623C679.283 45.1941 678.89 46.0259 678.497 46.8577C675.382 53.4453 672.244 60.0206 669.054 66.5721C667.752 69.2462 666.457 71.9231 665.178 74.6084C663.013 79.1541 660.812 83.6829 658.614 88.2126C658.033 89.4092 657.453 90.6061 656.872 91.803C645.657 114.946 645.657 114.946 640.888 124.394C639.921 126.314 638.965 128.238 638.048 130.183C636.418 133.636 634.737 137.043 632.934 140.409C632.381 141.457 631.829 142.506 631.278 143.555C630.899 144.267 630.515 144.977 630.127 145.684C627.792 149.528 627.792 149.528 627.158 153.806C627.682 154.875 628.279 155.693 629.041 156.605C629.377 157.182 629.702 157.765 630.015 158.354C630.355 158.946 630.695 159.538 631.036 160.13C632.806 163.229 634.503 166.36 636.171 169.514C637.757 172.511 639.366 175.489 641.052 178.432C643.181 182.152 645.178 185.939 647.174 189.732C648.765 192.754 650.375 195.764 652.016 198.759C653.909 202.213 655.77 205.684 657.635 209.153C658.628 211.001 659.622 212.848 660.616 214.695C661.013 215.432 661.409 216.169 661.806 216.906C662.593 218.369 663.381 219.833 664.169 221.296C668.164 228.714 672.144 236.14 676.092 243.584C677.773 246.754 679.461 249.92 681.157 253.082C683.266 257.016 685.365 260.955 687.454 264.9C687.692 265.348 687.929 265.796 688.166 266.243C688.28 266.458 688.394 266.673 688.511 266.895C689.175 268.147 689.844 269.397 690.519 270.644C690.665 270.916 690.812 271.188 690.963 271.468C691.219 271.944 691.478 272.42 691.738 272.894C692.248 273.844 692.531 274.406 692.531 275.503C683.656 275.526 674.784 275.464 665.91 275.377C664.809 275.366 663.709 275.355 662.608 275.345C658.751 275.308 654.895 275.27 651.038 275.231C647.466 275.196 643.894 275.162 640.322 275.128C637.228 275.099 634.134 275.069 631.041 275.038C629.204 275.02 627.368 275.002 625.531 274.985C623.81 274.97 622.088 274.952 620.367 274.934C619.74 274.928 619.113 274.922 618.486 274.917C616.572 274.9 614.658 274.872 612.745 274.824C612.482 274.817 612.219 274.811 611.947 274.805C611.188 274.784 610.43 274.754 609.671 274.721C609.237 274.704 608.804 274.687 608.358 274.67C607.312 274.484 607.312 274.484 606.712 273.925C606.33 273.216 606.146 272.548 605.954 271.766C605.743 271.256 605.525 270.748 605.3 270.244C605.07 269.687 604.841 269.13 604.613 268.572C604.488 268.267 604.363 267.962 604.233 267.648C603.823 266.65 603.414 265.652 603.005 264.654C602.715 263.949 602.426 263.245 602.136 262.541C601.692 261.461 601.247 260.38 600.803 259.299C599.531 256.203 598.25 253.11 596.967 250.018C592.453 239.139 587.955 228.254 583.504 217.349C583.354 216.982 583.204 216.615 583.049 216.236C582.627 215.201 582.204 214.166 581.782 213.131C581.656 212.822 581.53 212.512 581.4 212.194C581.284 211.91 581.169 211.627 581.05 211.335C580.9 210.966 580.9 210.966 580.746 210.589C580.53 210.039 580.338 209.48 580.151 208.92C578.56 211.519 577.074 214.168 575.61 216.84C575.372 217.273 575.134 217.706 574.896 218.139C574.403 219.036 573.91 219.933 573.417 220.83C572.262 222.934 571.103 225.036 569.944 227.137C569.832 227.34 569.72 227.544 569.605 227.753C567.336 231.868 565.059 235.979 562.773 240.085C562.365 240.818 561.957 241.552 561.55 242.286C559.233 246.456 556.88 250.601 554.463 254.715C552.683 257.757 550.972 260.835 549.276 263.925C548.19 265.898 547.076 267.833 545.86 269.728C545.748 269.504 545.636 269.28 545.521 269.049C545.831 268.24 546.164 267.474 546.533 266.692C546.697 266.333 546.697 266.333 546.866 265.968C547.228 265.182 547.595 264.398 547.961 263.613C548.213 263.068 548.465 262.523 548.717 261.978C549.223 260.882 549.731 259.786 550.241 258.691C551.021 257.013 551.795 255.331 552.568 253.649C553.385 251.873 554.206 250.1 555.027 248.326C555.197 247.959 555.367 247.591 555.542 247.213C558.279 241.294 561.046 235.389 563.825 229.49C564.638 227.764 565.449 226.037 566.259 224.309C568.973 218.522 571.723 212.754 574.509 207C575.389 205.179 576.264 203.356 577.138 201.532C577.361 201.068 577.361 201.068 577.588 200.595C578.475 198.741 579.328 196.875 580.151 194.992C580.375 194.992 580.599 194.992 580.83 194.992C584.266 202.229 587.69 209.47 591.046 216.743C591.38 217.468 591.715 218.192 592.05 218.915C595.349 226.052 598.632 233.197 601.894 240.351C602.688 242.09 603.482 243.828 604.278 245.566C605.518 248.277 606.757 250.988 607.993 253.701C608.339 254.459 608.685 255.217 609.031 255.975C609.598 257.217 610.163 258.46 610.727 259.703C610.939 260.169 611.151 260.635 611.364 261.101C611.656 261.74 611.946 262.38 612.235 263.02C612.4 263.382 612.564 263.744 612.734 264.117C613.084 264.972 613.084 264.972 613.084 265.651C613.584 265.639 613.584 265.639 614.094 265.626C621.938 265.43 629.782 265.304 637.629 265.225C637.979 265.222 638.33 265.218 638.691 265.215C642.259 265.179 645.828 265.145 649.397 265.114C658.006 265.039 666.61 264.896 675.215 264.632C671.347 257.309 671.347 257.309 667.407 250.025C665.608 246.746 663.855 243.443 662.105 240.138C660.615 237.323 659.115 234.515 657.582 231.723C655.595 228.102 653.668 224.449 651.74 220.796C650.091 217.673 648.431 214.557 646.76 211.447C644.976 208.127 643.227 204.79 641.498 201.441C640.36 199.246 639.191 197.072 637.996 194.907C635.667 190.682 633.489 186.379 631.294 182.083C631.158 181.818 631.023 181.553 630.883 181.281C630.75 181.02 630.617 180.76 630.48 180.491C629.139 177.871 627.77 175.266 626.393 172.665C625.572 171.108 624.761 169.546 623.949 167.986C622.814 165.808 621.68 163.632 620.538 161.458C620.255 160.92 619.973 160.381 619.692 159.842C619.069 158.651 618.436 157.473 617.754 156.315C617.417 155.733 617.417 155.733 617.073 155.14C616.876 154.812 616.678 154.484 616.474 154.146C615.932 152.625 616.663 151.499 617.33 150.09C617.528 149.708 617.726 149.325 617.93 148.93C618.039 148.72 618.147 148.509 618.259 148.292C618.612 147.609 618.967 146.926 619.323 146.244C619.57 145.767 619.817 145.29 620.064 144.813C621.62 141.817 623.212 138.843 624.842 135.886C626.108 133.582 627.326 131.255 628.532 128.919C630.046 125.988 631.595 123.08 633.183 120.189C634.715 117.394 636.208 114.58 637.699 111.764C639.502 108.358 641.318 104.961 643.17 101.581C644.47 99.2062 645.755 96.8237 647.036 94.4388C648.669 91.398 650.313 88.3627 651.968 85.3334C653.04 83.3709 654.106 81.4054 655.168 79.4379C656.742 76.5249 658.323 73.6171 659.935 70.7251C661.259 68.3504 662.572 65.9701 663.884 63.5891C664.118 63.1647 664.352 62.7403 664.586 62.3158C665.531 60.601 666.476 58.8861 667.421 57.171C670.476 51.6242 673.541 46.0827 676.618 40.5477C677.262 39.3883 677.905 38.2283 678.548 37.0681C683.031 28.978 687.599 20.9377 692.191 12.909C693.056 11.3963 693.921 9.88345 694.786 8.37044C695.13 7.76836 695.474 7.16641 695.819 6.56447C697 4.49725 698.172 2.42552 699.321 0.339844Z" stroke="white" stroke-width="4" mask="url(#path-2-outside-1_61_71)"/>
<mask id="path-3-outside-2_61_71" maskUnits="userSpaceOnUse" x="460.419" y="40.7637" width="156" height="266" fill="black">
<rect fill="white" x="460.419" y="40.7637" width="156" height="266"/>
<path d="M472.185 42.8033C508.342 42.7367 508.342 42.7367 524.629 42.9411C525.472 42.9517 526.315 42.9619 527.158 42.9721C535.205 43.0711 543.248 43.2598 551.292 43.4827C551.725 44.2886 552.157 45.0949 552.589 45.9014C552.711 46.1272 552.832 46.3529 552.957 46.5855C554.035 48.6005 554.999 50.6575 555.94 52.7397C557.886 56.9924 559.927 61.1955 561.987 65.3938C564.166 69.8354 566.314 74.2849 568.377 78.7818C569.881 82.0522 571.451 85.2887 573.028 88.5243C575.204 92.9908 577.308 97.488 579.377 102.005C579.845 103.002 580.334 103.987 580.83 104.97C581.803 103.797 582.631 102.604 583.416 101.299C583.648 100.916 583.88 100.532 584.118 100.137C584.366 99.7241 584.614 99.3108 584.862 98.8975C585.121 98.4677 585.38 98.0381 585.64 97.6085C586.165 96.7382 586.69 95.8677 587.214 94.9968C588.257 93.2651 589.307 91.5373 590.358 89.8103C590.549 89.497 590.739 89.1836 590.935 88.8608C593.095 85.3145 595.272 81.7797 597.45 78.2447C598.152 77.1031 598.853 75.9607 599.554 74.8181C601.721 71.2855 603.894 67.7572 606.114 64.2581C607.088 62.7239 608.053 61.1849 609.011 59.6414C609.243 59.2679 609.476 58.8944 609.715 58.5096C610.171 57.7748 610.627 57.0396 611.082 56.3038C611.288 55.9715 611.495 55.6392 611.708 55.2968C611.891 54.9999 612.075 54.703 612.265 54.397C612.745 53.6739 612.745 53.6739 613.424 52.9945C613.21 54.4272 612.719 55.55 612.071 56.8416C611.915 57.1544 611.915 57.1544 611.756 57.4736C611.413 58.1622 611.066 58.8494 610.72 59.5365C610.477 60.0212 610.234 60.506 609.992 60.9909C609.482 62.0098 608.971 63.0281 608.458 64.0458C607.812 65.3304 607.167 66.6162 606.524 67.9024C604.107 72.7324 601.677 77.5532 599.143 82.3233C598.329 83.8565 597.553 85.4073 596.787 86.9653C595.61 89.3388 594.4 91.6909 593.159 94.0314C591.627 96.9285 590.135 99.8457 588.639 102.762C585.226 109.414 585.226 109.414 583.589 112.528C583.398 112.891 583.398 112.891 583.204 113.261C582.442 114.705 581.646 116.125 580.83 117.539C579.749 116.622 579.182 115.442 578.543 114.204C578.361 113.858 578.361 113.858 578.175 113.505C577.914 113.007 577.654 112.51 577.395 112.012C576.847 110.959 576.294 109.907 575.742 108.856C575.462 108.323 575.182 107.789 574.902 107.256C573.696 104.957 572.472 102.668 571.239 100.384C571.047 100.029 570.856 99.6734 570.659 99.3074C570.089 98.2505 569.518 97.1939 568.947 96.1374C565.691 90.1101 562.471 84.0649 559.273 78.0072C558.343 76.2459 557.411 74.4854 556.478 72.7254C554.042 68.1278 551.606 63.5304 549.214 58.9099C548.124 56.8093 546.999 54.729 545.86 52.6548C534.608 52.5916 523.358 52.7177 512.107 52.8615C510.542 52.8815 508.977 52.901 507.413 52.9202C506.96 52.9258 506.96 52.9258 506.499 52.9314C500.832 52.9998 495.167 53.0145 489.501 52.9945C491.658 57.0064 493.823 61.0114 496.079 64.9692C497.84 68.0612 499.53 71.1878 501.2 74.3296C502.624 77.0068 504.08 79.662 505.585 82.2943C507.495 85.635 509.3 89.0255 511.094 92.4292C512.651 95.3831 514.238 98.3135 515.898 101.212C517.614 104.209 519.225 107.25 520.806 110.321C521.97 112.58 523.162 114.823 524.386 117.051C526.084 120.142 527.744 123.254 529.394 126.371C531.01 129.424 532.633 132.473 534.295 135.501C536.306 139.164 538.256 142.858 540.198 146.558C541.365 148.776 542.54 150.985 543.786 153.16C544.078 153.675 544.078 153.675 544.376 154.199C544.732 154.821 545.093 155.44 545.461 156.055C546.576 158.012 546.576 158.012 546.409 159.326C546.228 159.661 546.047 159.996 545.86 160.342C545.684 160.674 545.684 160.674 545.503 161.014C545.058 161.833 544.591 162.637 544.12 163.442C543.75 164.083 543.379 164.724 543.009 165.365C542.811 165.706 542.613 166.048 542.408 166.4C541.43 168.091 540.463 169.788 539.496 171.485C539.035 172.292 538.574 173.1 538.113 173.907C537.178 175.543 536.244 177.179 535.312 178.817C532.874 183.096 530.425 187.367 527.939 191.618C526.499 194.083 525.068 196.553 523.643 199.026C523.432 199.393 523.221 199.759 523.003 200.137C522.361 201.253 521.718 202.369 521.076 203.485C516.277 211.821 511.433 220.13 506.568 228.428C505.711 229.89 504.855 231.352 503.999 232.815C501.007 237.93 497.999 243.035 494.974 248.131C494.343 249.194 493.714 250.258 493.085 251.322C490.122 256.331 487.142 261.327 484.116 266.298C482.541 268.886 480.977 271.48 479.421 274.08C473.946 283.226 468.333 292.285 462.679 301.321C462.34 300.302 462.34 300.302 462.638 299.494C462.799 299.173 462.961 298.851 463.127 298.52C463.401 297.966 463.401 297.966 463.682 297.401C463.889 296.991 464.097 296.582 464.304 296.172C464.52 295.741 464.735 295.309 464.95 294.878C465.536 293.702 466.127 292.529 466.718 291.356C467.339 290.123 467.956 288.889 468.573 287.655C469.613 285.576 470.656 283.498 471.701 281.421C473.163 278.514 474.621 275.605 476.077 272.696C477.095 270.663 478.114 268.631 479.134 266.599C479.378 266.111 479.623 265.624 479.867 265.136C482.364 260.158 484.861 255.182 487.477 250.265C488.413 248.504 489.298 246.718 490.18 244.929C491.482 242.307 492.809 239.701 494.182 237.115C495.704 234.241 497.184 231.347 498.668 228.453C500.401 225.074 502.136 221.696 503.913 218.34C504.669 216.911 505.417 215.479 506.16 214.044C507.901 210.675 509.653 207.316 511.484 203.994C513.347 200.613 515.11 197.183 516.869 193.747C518.522 190.517 520.21 187.313 521.963 184.136C523.293 181.718 524.565 179.272 525.829 176.818C527.303 173.955 528.801 171.107 530.349 168.283C530.513 167.981 530.678 167.679 530.847 167.368C531.633 165.929 532.427 164.497 533.236 163.072C533.525 162.551 533.815 162.03 534.105 161.51C534.24 161.277 534.376 161.045 534.516 160.805C534.931 160.083 534.931 160.083 535.335 158.983C534.928 157.647 534.231 156.457 533.557 155.239C533.449 155.044 533.342 154.849 533.231 154.648C532.879 154.012 532.527 153.376 532.174 152.741C531.927 152.295 531.68 151.849 531.433 151.403C529.791 148.439 528.131 145.486 526.46 142.539C523.028 136.482 519.677 130.38 516.318 124.282C514.778 121.485 513.228 118.694 511.675 115.904C509.869 112.658 508.089 109.399 506.325 106.129C505.277 104.186 504.219 102.249 503.145 100.32C503.013 100.083 502.881 99.8461 502.745 99.602C502.538 99.2303 502.538 99.2303 502.327 98.851C499.144 93.1359 495.992 87.4043 492.9 81.6396C491.655 79.3194 490.402 77.004 489.14 74.6933C487.173 71.0925 485.219 67.4849 483.268 63.8761C482.165 61.8377 481.061 59.7997 479.958 57.7618C479.004 56 478.051 54.238 477.098 52.4757C476.901 52.1111 476.704 51.7465 476.5 51.3709C476.126 50.6783 475.751 49.9856 475.377 49.2929C475.206 48.9769 475.035 48.661 474.859 48.3355C474.615 47.8836 474.615 47.8836 474.366 47.4227C473.753 46.3023 473.122 45.1927 472.485 44.0857C472.185 43.4827 472.185 43.4827 472.185 42.8033Z"/>
</mask>
<path d="M472.185 42.8033C508.342 42.7367 508.342 42.7367 524.629 42.9411C525.472 42.9517 526.315 42.9619 527.158 42.9721C535.205 43.0711 543.248 43.2598 551.292 43.4827C551.725 44.2886 552.157 45.0949 552.589 45.9014C552.711 46.1272 552.832 46.3529 552.957 46.5855C554.035 48.6005 554.999 50.6575 555.94 52.7397C557.886 56.9924 559.927 61.1955 561.987 65.3938C564.166 69.8354 566.314 74.2849 568.377 78.7818C569.881 82.0522 571.451 85.2887 573.028 88.5243C575.204 92.9908 577.308 97.488 579.377 102.005C579.845 103.002 580.334 103.987 580.83 104.97C581.803 103.797 582.631 102.604 583.416 101.299C583.648 100.916 583.88 100.532 584.118 100.137C584.366 99.7241 584.614 99.3108 584.862 98.8975C585.121 98.4677 585.38 98.0381 585.64 97.6085C586.165 96.7382 586.69 95.8677 587.214 94.9968C588.257 93.2651 589.307 91.5373 590.358 89.8103C590.549 89.497 590.739 89.1836 590.935 88.8608C593.095 85.3145 595.272 81.7797 597.45 78.2447C598.152 77.1031 598.853 75.9607 599.554 74.8181C601.721 71.2855 603.894 67.7572 606.114 64.2581C607.088 62.7239 608.053 61.1849 609.011 59.6414C609.243 59.2679 609.476 58.8944 609.715 58.5096C610.171 57.7748 610.627 57.0396 611.082 56.3038C611.288 55.9715 611.495 55.6392 611.708 55.2968C611.891 54.9999 612.075 54.703 612.265 54.397C612.745 53.6739 612.745 53.6739 613.424 52.9945C613.21 54.4272 612.719 55.55 612.071 56.8416C611.915 57.1544 611.915 57.1544 611.756 57.4736C611.413 58.1622 611.066 58.8494 610.72 59.5365C610.477 60.0212 610.234 60.506 609.992 60.9909C609.482 62.0098 608.971 63.0281 608.458 64.0458C607.812 65.3304 607.167 66.6162 606.524 67.9024C604.107 72.7324 601.677 77.5532 599.143 82.3233C598.329 83.8565 597.553 85.4073 596.787 86.9653C595.61 89.3388 594.4 91.6909 593.159 94.0314C591.627 96.9285 590.135 99.8457 588.639 102.762C585.226 109.414 585.226 109.414 583.589 112.528C583.398 112.891 583.398 112.891 583.204 113.261C582.442 114.705 581.646 116.125 580.83 117.539C579.749 116.622 579.182 115.442 578.543 114.204C578.361 113.858 578.361 113.858 578.175 113.505C577.914 113.007 577.654 112.51 577.395 112.012C576.847 110.959 576.294 109.907 575.742 108.856C575.462 108.323 575.182 107.789 574.902 107.256C573.696 104.957 572.472 102.668 571.239 100.384C571.047 100.029 570.856 99.6734 570.659 99.3074C570.089 98.2505 569.518 97.1939 568.947 96.1374C565.691 90.1101 562.471 84.0649 559.273 78.0072C558.343 76.2459 557.411 74.4854 556.478 72.7254C554.042 68.1278 551.606 63.5304 549.214 58.9099C548.124 56.8093 546.999 54.729 545.86 52.6548C534.608 52.5916 523.358 52.7177 512.107 52.8615C510.542 52.8815 508.977 52.901 507.413 52.9202C506.96 52.9258 506.96 52.9258 506.499 52.9314C500.832 52.9998 495.167 53.0145 489.501 52.9945C491.658 57.0064 493.823 61.0114 496.079 64.9692C497.84 68.0612 499.53 71.1878 501.2 74.3296C502.624 77.0068 504.08 79.662 505.585 82.2943C507.495 85.635 509.3 89.0255 511.094 92.4292C512.651 95.3831 514.238 98.3135 515.898 101.212C517.614 104.209 519.225 107.25 520.806 110.321C521.97 112.58 523.162 114.823 524.386 117.051C526.084 120.142 527.744 123.254 529.394 126.371C531.01 129.424 532.633 132.473 534.295 135.501C536.306 139.164 538.256 142.858 540.198 146.558C541.365 148.776 542.54 150.985 543.786 153.16C544.078 153.675 544.078 153.675 544.376 154.199C544.732 154.821 545.093 155.44 545.461 156.055C546.576 158.012 546.576 158.012 546.409 159.326C546.228 159.661 546.047 159.996 545.86 160.342C545.684 160.674 545.684 160.674 545.503 161.014C545.058 161.833 544.591 162.637 544.12 163.442C543.75 164.083 543.379 164.724 543.009 165.365C542.811 165.706 542.613 166.048 542.408 166.4C541.43 168.091 540.463 169.788 539.496 171.485C539.035 172.292 538.574 173.1 538.113 173.907C537.178 175.543 536.244 177.179 535.312 178.817C532.874 183.096 530.425 187.367 527.939 191.618C526.499 194.083 525.068 196.553 523.643 199.026C523.432 199.393 523.221 199.759 523.003 200.137C522.361 201.253 521.718 202.369 521.076 203.485C516.277 211.821 511.433 220.13 506.568 228.428C505.711 229.89 504.855 231.352 503.999 232.815C501.007 237.93 497.999 243.035 494.974 248.131C494.343 249.194 493.714 250.258 493.085 251.322C490.122 256.331 487.142 261.327 484.116 266.298C482.541 268.886 480.977 271.48 479.421 274.08C473.946 283.226 468.333 292.285 462.679 301.321C462.34 300.302 462.34 300.302 462.638 299.494C462.799 299.173 462.961 298.851 463.127 298.52C463.401 297.966 463.401 297.966 463.682 297.401C463.889 296.991 464.097 296.582 464.304 296.172C464.52 295.741 464.735 295.309 464.95 294.878C465.536 293.702 466.127 292.529 466.718 291.356C467.339 290.123 467.956 288.889 468.573 287.655C469.613 285.576 470.656 283.498 471.701 281.421C473.163 278.514 474.621 275.605 476.077 272.696C477.095 270.663 478.114 268.631 479.134 266.599C479.378 266.111 479.623 265.624 479.867 265.136C482.364 260.158 484.861 255.182 487.477 250.265C488.413 248.504 489.298 246.718 490.18 244.929C491.482 242.307 492.809 239.701 494.182 237.115C495.704 234.241 497.184 231.347 498.668 228.453C500.401 225.074 502.136 221.696 503.913 218.34C504.669 216.911 505.417 215.479 506.16 214.044C507.901 210.675 509.653 207.316 511.484 203.994C513.347 200.613 515.11 197.183 516.869 193.747C518.522 190.517 520.21 187.313 521.963 184.136C523.293 181.718 524.565 179.272 525.829 176.818C527.303 173.955 528.801 171.107 530.349 168.283C530.513 167.981 530.678 167.679 530.847 167.368C531.633 165.929 532.427 164.497 533.236 163.072C533.525 162.551 533.815 162.03 534.105 161.51C534.24 161.277 534.376 161.045 534.516 160.805C534.931 160.083 534.931 160.083 535.335 158.983C534.928 157.647 534.231 156.457 533.557 155.239C533.449 155.044 533.342 154.849 533.231 154.648C532.879 154.012 532.527 153.376 532.174 152.741C531.927 152.295 531.68 151.849 531.433 151.403C529.791 148.439 528.131 145.486 526.46 142.539C523.028 136.482 519.677 130.38 516.318 124.282C514.778 121.485 513.228 118.694 511.675 115.904C509.869 112.658 508.089 109.399 506.325 106.129C505.277 104.186 504.219 102.249 503.145 100.32C503.013 100.083 502.881 99.8461 502.745 99.602C502.538 99.2303 502.538 99.2303 502.327 98.851C499.144 93.1359 495.992 87.4043 492.9 81.6396C491.655 79.3194 490.402 77.004 489.14 74.6933C487.173 71.0925 485.219 67.4849 483.268 63.8761C482.165 61.8377 481.061 59.7997 479.958 57.7618C479.004 56 478.051 54.238 477.098 52.4757C476.901 52.1111 476.704 51.7465 476.5 51.3709C476.126 50.6783 475.751 49.9856 475.377 49.2929C475.206 48.9769 475.035 48.661 474.859 48.3355C474.615 47.8836 474.615 47.8836 474.366 47.4227C473.753 46.3023 473.122 45.1927 472.485 44.0857C472.185 43.4827 472.185 43.4827 472.185 42.8033Z" fill="white"/>
<path d="M472.185 42.8033C508.342 42.7367 508.342 42.7367 524.629 42.9411C525.472 42.9517 526.315 42.9619 527.158 42.9721C535.205 43.0711 543.248 43.2598 551.292 43.4827C551.725 44.2886 552.157 45.0949 552.589 45.9014C552.711 46.1272 552.832 46.3529 552.957 46.5855C554.035 48.6005 554.999 50.6575 555.94 52.7397C557.886 56.9924 559.927 61.1955 561.987 65.3938C564.166 69.8354 566.314 74.2849 568.377 78.7818C569.881 82.0522 571.451 85.2887 573.028 88.5243C575.204 92.9908 577.308 97.488 579.377 102.005C579.845 103.002 580.334 103.987 580.83 104.97C581.803 103.797 582.631 102.604 583.416 101.299C583.648 100.916 583.88 100.532 584.118 100.137C584.366 99.7241 584.614 99.3108 584.862 98.8975C585.121 98.4677 585.38 98.0381 585.64 97.6085C586.165 96.7382 586.69 95.8677 587.214 94.9968C588.257 93.2651 589.307 91.5373 590.358 89.8103C590.549 89.497 590.739 89.1836 590.935 88.8608C593.095 85.3145 595.272 81.7797 597.45 78.2447C598.152 77.1031 598.853 75.9607 599.554 74.8181C601.721 71.2855 603.894 67.7572 606.114 64.2581C607.088 62.7239 608.053 61.1849 609.011 59.6414C609.243 59.2679 609.476 58.8944 609.715 58.5096C610.171 57.7748 610.627 57.0396 611.082 56.3038C611.288 55.9715 611.495 55.6392 611.708 55.2968C611.891 54.9999 612.075 54.703 612.265 54.397C612.745 53.6739 612.745 53.6739 613.424 52.9945C613.21 54.4272 612.719 55.55 612.071 56.8416C611.915 57.1544 611.915 57.1544 611.756 57.4736C611.413 58.1622 611.066 58.8494 610.72 59.5365C610.477 60.0212 610.234 60.506 609.992 60.9909C609.482 62.0098 608.971 63.0281 608.458 64.0458C607.812 65.3304 607.167 66.6162 606.524 67.9024C604.107 72.7324 601.677 77.5532 599.143 82.3233C598.329 83.8565 597.553 85.4073 596.787 86.9653C595.61 89.3388 594.4 91.6909 593.159 94.0314C591.627 96.9285 590.135 99.8457 588.639 102.762C585.226 109.414 585.226 109.414 583.589 112.528C583.398 112.891 583.398 112.891 583.204 113.261C582.442 114.705 581.646 116.125 580.83 117.539C579.749 116.622 579.182 115.442 578.543 114.204C578.361 113.858 578.361 113.858 578.175 113.505C577.914 113.007 577.654 112.51 577.395 112.012C576.847 110.959 576.294 109.907 575.742 108.856C575.462 108.323 575.182 107.789 574.902 107.256C573.696 104.957 572.472 102.668 571.239 100.384C571.047 100.029 570.856 99.6734 570.659 99.3074C570.089 98.2505 569.518 97.1939 568.947 96.1374C565.691 90.1101 562.471 84.0649 559.273 78.0072C558.343 76.2459 557.411 74.4854 556.478 72.7254C554.042 68.1278 551.606 63.5304 549.214 58.9099C548.124 56.8093 546.999 54.729 545.86 52.6548C534.608 52.5916 523.358 52.7177 512.107 52.8615C510.542 52.8815 508.977 52.901 507.413 52.9202C506.96 52.9258 506.96 52.9258 506.499 52.9314C500.832 52.9998 495.167 53.0145 489.501 52.9945C491.658 57.0064 493.823 61.0114 496.079 64.9692C497.84 68.0612 499.53 71.1878 501.2 74.3296C502.624 77.0068 504.08 79.662 505.585 82.2943C507.495 85.635 509.3 89.0255 511.094 92.4292C512.651 95.3831 514.238 98.3135 515.898 101.212C517.614 104.209 519.225 107.25 520.806 110.321C521.97 112.58 523.162 114.823 524.386 117.051C526.084 120.142 527.744 123.254 529.394 126.371C531.01 129.424 532.633 132.473 534.295 135.501C536.306 139.164 538.256 142.858 540.198 146.558C541.365 148.776 542.54 150.985 543.786 153.16C544.078 153.675 544.078 153.675 544.376 154.199C544.732 154.821 545.093 155.44 545.461 156.055C546.576 158.012 546.576 158.012 546.409 159.326C546.228 159.661 546.047 159.996 545.86 160.342C545.684 160.674 545.684 160.674 545.503 161.014C545.058 161.833 544.591 162.637 544.12 163.442C543.75 164.083 543.379 164.724 543.009 165.365C542.811 165.706 542.613 166.048 542.408 166.4C541.43 168.091 540.463 169.788 539.496 171.485C539.035 172.292 538.574 173.1 538.113 173.907C537.178 175.543 536.244 177.179 535.312 178.817C532.874 183.096 530.425 187.367 527.939 191.618C526.499 194.083 525.068 196.553 523.643 199.026C523.432 199.393 523.221 199.759 523.003 200.137C522.361 201.253 521.718 202.369 521.076 203.485C516.277 211.821 511.433 220.13 506.568 228.428C505.711 229.89 504.855 231.352 503.999 232.815C501.007 237.93 497.999 243.035 494.974 248.131C494.343 249.194 493.714 250.258 493.085 251.322C490.122 256.331 487.142 261.327 484.116 266.298C482.541 268.886 480.977 271.48 479.421 274.08C473.946 283.226 468.333 292.285 462.679 301.321C462.34 300.302 462.34 300.302 462.638 299.494C462.799 299.173 462.961 298.851 463.127 298.52C463.401 297.966 463.401 297.966 463.682 297.401C463.889 296.991 464.097 296.582 464.304 296.172C464.52 295.741 464.735 295.309 464.95 294.878C465.536 293.702 466.127 292.529 466.718 291.356C467.339 290.123 467.956 288.889 468.573 287.655C469.613 285.576 470.656 283.498 471.701 281.421C473.163 278.514 474.621 275.605 476.077 272.696C477.095 270.663 478.114 268.631 479.134 266.599C479.378 266.111 479.623 265.624 479.867 265.136C482.364 260.158 484.861 255.182 487.477 250.265C488.413 248.504 489.298 246.718 490.18 244.929C491.482 242.307 492.809 239.701 494.182 237.115C495.704 234.241 497.184 231.347 498.668 228.453C500.401 225.074 502.136 221.696 503.913 218.34C504.669 216.911 505.417 215.479 506.16 214.044C507.901 210.675 509.653 207.316 511.484 203.994C513.347 200.613 515.11 197.183 516.869 193.747C518.522 190.517 520.21 187.313 521.963 184.136C523.293 181.718 524.565 179.272 525.829 176.818C527.303 173.955 528.801 171.107 530.349 168.283C530.513 167.981 530.678 167.679 530.847 167.368C531.633 165.929 532.427 164.497 533.236 163.072C533.525 162.551 533.815 162.03 534.105 161.51C534.24 161.277 534.376 161.045 534.516 160.805C534.931 160.083 534.931 160.083 535.335 158.983C534.928 157.647 534.231 156.457 533.557 155.239C533.449 155.044 533.342 154.849 533.231 154.648C532.879 154.012 532.527 153.376 532.174 152.741C531.927 152.295 531.68 151.849 531.433 151.403C529.791 148.439 528.131 145.486 526.46 142.539C523.028 136.482 519.677 130.38 516.318 124.282C514.778 121.485 513.228 118.694 511.675 115.904C509.869 112.658 508.089 109.399 506.325 106.129C505.277 104.186 504.219 102.249 503.145 100.32C503.013 100.083 502.881 99.8461 502.745 99.602C502.538 99.2303 502.538 99.2303 502.327 98.851C499.144 93.1359 495.992 87.4043 492.9 81.6396C491.655 79.3194 490.402 77.004 489.14 74.6933C487.173 71.0925 485.219 67.4849 483.268 63.8761C482.165 61.8377 481.061 59.7997 479.958 57.7618C479.004 56 478.051 54.238 477.098 52.4757C476.901 52.1111 476.704 51.7465 476.5 51.3709C476.126 50.6783 475.751 49.9856 475.377 49.2929C475.206 48.9769 475.035 48.661 474.859 48.3355C474.615 47.8836 474.615 47.8836 474.366 47.4227C473.753 46.3023 473.122 45.1927 472.485 44.0857C472.185 43.4827 472.185 43.4827 472.185 42.8033Z" stroke="white" stroke-width="4" mask="url(#path-3-outside-2_61_71)"/>
</g>
<defs>
<clipPath id="clip0_61_71">
<rect width="478" height="124" fill="white" transform="translate(0 89)"/>
</clipPath>
<clipPath id="clip1_61_71">
<rect width="238" height="302" fill="white" transform="translate(462)"/>
</clipPath>
</defs>
</svg>
