<svg width="556" height="183" viewBox="0 0 556 183" fill="none" xmlns="http://www.w3.org/2000/svg">
<g clip-path="url(#clip0_60_34)">
<path fill-rule="evenodd" clip-rule="evenodd" d="M302.675 181.776C302.942 181.846 303.211 181.909 303.481 181.965C304.164 182.106 304.765 182.177 305.283 182.177C306.219 182.177 307.088 182.043 307.891 181.776C307.782 181.283 307.699 180.786 307.641 180.285C307.392 178.28 307.239 175.118 307.181 170.797C307.163 169.397 307.155 167.997 307.155 166.596C307.155 162.272 307.222 158.148 307.356 154.225C308.178 155.576 308.992 156.931 309.801 158.289C311.67 161.429 313.709 164.923 315.915 168.77C316.627 170.011 317.338 171.253 318.047 172.496C320.233 176.327 321.974 179.421 323.271 181.776C323.427 181.801 323.583 181.826 323.74 181.849C324.676 181.992 325.496 182.088 326.199 182.138C326.538 182.163 326.877 182.176 327.216 182.177C328.338 182.177 329.241 182.108 329.925 181.97C330.163 181.924 330.398 181.859 330.627 181.776C330.518 181.285 330.435 180.789 330.377 180.289C330.128 178.296 329.975 175.161 329.917 170.885C329.899 169.5 329.891 168.115 329.891 166.73C329.891 163.387 329.947 159.765 330.058 155.864C330.17 151.963 330.292 148.854 330.426 146.535C330.364 146.518 330.302 146.502 330.24 146.486C329.81 146.374 329.397 146.29 329.001 146.231C328.587 146.168 328.17 146.136 327.751 146.134C327.484 146.134 327.217 146.147 326.951 146.173C326.338 146.235 325.733 146.356 325.143 146.535C325.15 146.561 325.157 146.586 325.163 146.611C325.55 148.141 325.78 151.734 325.853 157.391C325.871 158.832 325.88 160.274 325.879 161.715C325.879 162.487 325.876 163.258 325.872 164.03C325.856 166.751 325.813 170.125 325.745 174.153C324.185 171.589 322.485 168.739 320.646 165.601C319.485 163.619 318.332 161.632 317.186 159.642C313.976 154.069 311.502 149.701 309.763 146.535C309.282 146.452 308.798 146.378 308.314 146.315C307.383 146.194 306.574 146.134 305.885 146.134C305.548 146.135 305.212 146.151 304.876 146.182C304.513 146.213 304.12 146.261 303.698 146.323C303.289 146.385 302.881 146.456 302.474 146.535C302.583 147.026 302.667 147.522 302.725 148.021C302.973 150.015 303.126 153.15 303.184 157.425C303.202 158.81 303.211 160.196 303.21 161.581C303.21 170.319 303.032 177.05 302.675 181.776ZM477.34 181.776C477.607 181.846 477.875 181.909 478.145 181.965C478.829 182.106 479.43 182.177 479.948 182.177C480.884 182.177 481.753 182.043 482.556 181.776C482.447 181.283 482.363 180.786 482.305 180.285C482.057 178.28 481.904 175.118 481.846 170.797C481.828 169.397 481.819 167.997 481.82 166.596C481.82 162.272 481.887 158.148 482.021 154.225C482.842 155.576 483.657 156.931 484.465 158.289C486.335 161.429 488.373 164.923 490.58 168.77C491.292 170.011 492.003 171.253 492.712 172.496C494.898 176.327 496.639 179.421 497.936 181.776C498.092 181.801 498.248 181.826 498.404 181.849C499.341 181.992 500.161 182.088 500.864 182.138C501.202 182.163 501.542 182.176 501.881 182.177C503.003 182.177 503.905 182.108 504.589 181.97C504.828 181.924 505.063 181.859 505.291 181.776C505.183 181.285 505.099 180.789 505.041 180.289C504.793 178.296 504.639 175.161 504.582 170.885C504.564 169.5 504.555 168.115 504.556 166.73C504.556 163.387 504.612 159.765 504.723 155.864C504.834 151.963 504.957 148.854 505.091 146.535C505.029 146.518 504.967 146.502 504.905 146.486C504.474 146.374 504.061 146.29 503.666 146.231C503.252 146.168 502.834 146.136 502.416 146.134C502.149 146.134 501.882 146.147 501.616 146.173C501.003 146.235 500.397 146.356 499.808 146.535C499.815 146.561 499.822 146.586 499.828 146.611C500.215 148.141 500.444 151.734 500.518 157.391C500.536 158.832 500.544 160.274 500.544 161.715C500.543 162.487 500.541 163.258 500.536 164.03C500.52 166.751 500.478 170.125 500.41 174.153C498.85 171.589 497.15 168.739 495.311 165.601C494.15 163.619 492.997 161.632 491.85 159.642C488.641 154.069 486.167 149.701 484.428 146.535C483.946 146.452 483.463 146.378 482.978 146.315C482.048 146.194 481.238 146.134 480.549 146.134C480.213 146.135 479.876 146.151 479.541 146.182C479.177 146.213 478.785 146.261 478.363 146.323C477.953 146.385 477.545 146.456 477.139 146.535C477.248 147.026 477.331 147.522 477.389 148.021C477.638 150.015 477.791 153.15 477.849 157.425C477.867 158.81 477.875 160.196 477.875 161.581C477.875 170.319 477.696 177.05 477.34 181.776ZM73.9125 182.177C75.233 180.758 76.5206 179.308 77.7743 177.829C80.602 174.508 83.806 170.48 87.3862 165.745C87.6433 165.405 87.8998 165.065 88.1559 164.724C86.9571 162.947 85.7488 161.177 84.5308 159.413C79.7091 152.438 76.6823 148.48 75.4505 147.538C76.3668 147.137 77.3224 146.832 78.3019 146.629C79.2613 146.423 80.3033 146.281 81.4281 146.204C82.1316 146.156 82.8367 146.133 83.5418 146.134C83.6096 146.297 83.6845 146.457 83.7665 146.614C84.1976 147.456 85.0923 148.945 86.4507 151.083C88.1224 153.713 90.0282 156.61 92.1681 159.776C92.965 158.771 93.7517 157.758 94.5279 156.737C96.1199 154.64 97.4062 152.834 98.387 151.317C98.697 150.838 98.9985 150.355 99.2911 149.866C100.167 148.396 100.69 147.286 100.861 146.535C103.001 146.268 105.364 146.134 107.949 146.134C107.018 147.144 106.105 148.171 105.212 149.214C103.172 151.588 100.806 154.488 98.1142 157.917C96.8125 159.576 95.5214 161.243 94.241 162.919C101.597 173.707 106.01 179.658 107.481 180.773C106.278 181.308 105.041 181.676 103.77 181.876C103.136 181.975 102.498 182.047 101.858 182.092C101.089 182.149 100.266 182.177 99.39 182.177C99.0334 181.419 97.9523 179.625 96.1468 176.794C94.3413 173.963 92.3687 170.988 90.2288 167.867C87.439 171.354 85.2885 174.266 83.7772 176.602C83.7432 176.655 83.7093 176.708 83.6756 176.761C82.1598 179.123 81.2905 180.795 81.0676 181.776C78.9278 182.043 76.5428 182.177 73.9125 182.177ZM515.857 178.165C516.141 178.479 516.442 178.777 516.757 179.06C519.321 181.361 522.788 182.511 527.158 182.511C529.654 182.511 532.117 182.088 534.547 181.241C534.716 181.182 534.885 181.121 535.053 181.058C537.249 180.236 539.03 179.182 540.398 177.897C540.398 177.218 540.402 176.538 540.41 175.858C540.452 171.851 540.649 167.847 541 163.855C540.803 163.818 540.605 163.783 540.408 163.75C539.824 163.653 539.268 163.579 538.74 163.53C538.225 163.48 537.707 163.455 537.188 163.454C536.841 163.454 536.493 163.467 536.147 163.494C535.371 163.557 534.602 163.678 533.845 163.855C534.424 165.231 534.769 168.447 534.877 173.502C534.903 174.766 534.916 176.031 534.915 177.296C534.119 177.533 533.304 177.704 532.479 177.807C531.624 177.915 530.762 177.967 529.9 177.964C529.161 177.966 528.423 177.927 527.69 177.847C524.678 177.511 522.439 176.447 520.972 174.654C520.74 174.369 520.526 174.068 520.334 173.754C519.373 172.194 518.747 170.11 518.455 167.502C518.323 166.269 518.259 165.029 518.264 163.788C518.264 161.603 518.643 159.475 519.401 157.402C519.641 156.74 519.918 156.093 520.23 155.462C520.819 154.256 521.563 153.132 522.444 152.119C522.513 152.04 522.583 151.963 522.654 151.886C523.145 151.352 523.652 150.9 524.173 150.528C524.888 150.006 525.697 149.626 526.556 149.411C526.723 149.411 526.891 149.417 527.058 149.43C527.924 149.494 528.954 149.718 530.148 150.102C530.752 150.297 531.349 150.513 531.939 150.748C534.19 151.64 536.319 152.732 538.325 154.025C538.816 153.267 539.239 152.264 539.596 151.016C539.952 149.767 540.131 148.675 540.131 147.739C539.693 147.578 539.25 147.43 538.802 147.298C536.188 146.522 533.153 146.134 529.699 146.134C529.138 146.134 528.578 146.156 528.019 146.2C525.337 146.389 522.737 147.215 520.437 148.608C517.74 150.258 515.645 152.565 514.152 155.529C513.443 156.941 512.904 158.432 512.543 159.97C512.112 161.835 511.9 163.745 511.912 165.66C511.91 166.48 511.942 167.299 512.008 168.116C512.355 172.37 513.638 175.72 515.857 178.165ZM51.9691 181.687C53.2218 181.978 54.5046 182.121 55.7907 182.11C58.4138 182.11 60.6448 181.76 62.4838 181.059C64.097 180.481 65.5263 179.481 66.6237 178.165C67.9478 176.521 68.8783 174.596 69.344 172.537C69.6802 171.071 69.8445 169.571 69.8335 168.068C69.8335 166.237 69.8511 164.244 69.8863 162.089C69.9158 160.314 69.954 158.54 70.0006 156.766C70.0254 155.811 70.0522 154.856 70.0809 153.9C70.17 150.936 70.2659 148.481 70.3684 146.535C70.1081 146.47 69.8464 146.411 69.5834 146.358C68.8442 146.209 68.192 146.134 67.6267 146.134C66.7797 146.134 65.9327 146.268 65.0857 146.535C65.4423 149.21 65.6206 156.856 65.6206 169.472C65.6343 170.525 65.5077 171.576 65.2442 172.596C64.3031 176.041 61.5977 177.764 57.1281 177.764C56.4437 177.768 55.7602 177.71 55.0859 177.593C52.0723 177.048 50.1973 175.204 49.4608 172.06C49.2102 170.925 49.0904 169.765 49.1037 168.603C49.1037 160.4 49.2375 153.044 49.505 146.535C49.3016 146.498 49.0978 146.463 48.8938 146.43C48.2915 146.333 47.7171 146.26 47.1705 146.21C46.635 146.161 46.0975 146.135 45.5596 146.134C44.356 146.134 43.1746 146.268 42.0155 146.535C42.3722 147.873 42.6396 150.704 42.818 155.028C42.829 155.298 42.8397 155.569 42.85 155.84C43.0091 160.025 43.0875 164.213 43.0854 168.402C43.0854 170.399 43.3181 172.188 43.7836 173.77C44.2775 175.544 45.184 177.176 46.4289 178.533C47.9194 180.114 49.8489 181.212 51.9691 181.687ZM121.514 181.687C122.767 181.978 124.05 182.121 125.336 182.11C127.959 182.11 130.19 181.76 132.029 181.059C133.642 180.481 135.071 179.481 136.169 178.165C137.493 176.521 138.423 174.596 138.889 172.537C139.225 171.071 139.389 169.571 139.378 168.068C139.378 166.237 139.396 164.244 139.431 162.089C139.461 160.314 139.499 158.54 139.546 156.766C139.57 155.811 139.597 154.856 139.626 153.9C139.715 150.936 139.811 148.481 139.913 146.535C139.653 146.47 139.391 146.411 139.128 146.358C138.389 146.209 137.737 146.134 137.172 146.134C136.325 146.134 135.478 146.268 134.631 146.535C134.987 149.21 135.166 156.856 135.166 169.472C135.179 170.525 135.053 171.576 134.789 172.596C133.848 176.041 131.143 177.764 126.673 177.764C125.989 177.768 125.305 177.71 124.631 177.593C121.617 177.048 119.742 175.204 119.006 172.06C118.755 170.925 118.635 169.765 118.649 168.603C118.649 160.4 118.782 153.044 119.05 146.535C118.846 146.498 118.643 146.463 118.439 146.43C117.836 146.333 117.262 146.26 116.715 146.21C116.18 146.161 115.642 146.135 115.105 146.134C113.901 146.134 112.719 146.268 111.56 146.535C111.917 147.873 112.185 150.704 112.363 155.028C112.374 155.298 112.385 155.569 112.395 155.84C112.554 160.025 112.632 164.213 112.63 168.402C112.63 170.399 112.863 172.188 113.328 173.77C113.822 175.544 114.729 177.176 115.974 178.533C117.464 180.114 119.394 181.212 121.514 181.687ZM377.894 181.687C379.147 181.978 380.429 182.121 381.716 182.11C384.339 182.11 386.57 181.76 388.409 181.059C390.022 180.481 391.451 179.481 392.548 178.165C393.873 176.521 394.803 174.596 395.269 172.537C395.605 171.071 395.769 169.571 395.758 168.068C395.758 166.237 395.776 164.244 395.811 162.089C395.841 160.314 395.879 158.54 395.925 156.766C395.95 155.811 395.977 154.856 396.006 153.9C396.095 150.936 396.191 148.481 396.293 146.535C396.033 146.47 395.771 146.411 395.508 146.358C394.769 146.209 394.117 146.134 393.551 146.134C392.704 146.134 391.857 146.268 391.01 146.535C391.367 149.21 391.545 156.856 391.545 169.472C391.559 170.525 391.432 171.576 391.169 172.596C390.228 176.041 387.523 177.764 383.053 177.764C382.368 177.768 381.685 177.71 381.011 177.593C377.997 177.048 376.122 175.204 375.386 172.06C375.135 170.925 375.015 169.765 375.029 168.603C375.029 160.4 375.162 153.044 375.43 146.535C375.226 146.498 375.023 146.463 374.819 146.43C374.216 146.333 373.642 146.26 373.095 146.21C372.56 146.161 372.022 146.135 371.484 146.134C370.281 146.134 369.099 146.268 367.94 146.535C368.297 147.873 368.564 150.704 368.743 155.028C368.754 155.298 368.764 155.569 368.775 155.84C368.934 160.025 369.012 164.213 369.01 168.402C369.01 170.399 369.243 172.188 369.708 173.77C370.202 175.544 371.109 177.176 372.354 178.533C373.844 180.114 375.774 181.212 377.894 181.687ZM342.911 182.017C344.794 182.355 346.703 182.521 348.615 182.511C349.775 182.516 350.934 182.448 352.085 182.306C353.297 182.152 354.395 181.91 355.382 181.579C356.522 181.215 357.591 180.66 358.545 179.937C359.928 178.883 360.938 177.414 361.428 175.746C361.722 174.729 361.866 173.674 361.855 172.615C361.856 172.3 361.841 171.986 361.811 171.673C361.696 170.303 361.214 168.988 360.417 167.867C359.459 166.53 358.311 165.437 356.974 164.59C355.636 163.743 353.853 162.763 351.624 161.648C349.764 160.718 348.238 159.863 347.047 159.084C346.574 158.778 346.116 158.451 345.673 158.104C344.38 157.079 343.733 155.763 343.733 154.159C343.733 154.139 343.733 154.119 343.733 154.1C343.733 153.512 343.851 152.929 344.081 152.388C344.311 151.847 344.647 151.357 345.071 150.949C345.164 150.855 345.259 150.764 345.357 150.675C345.699 150.364 346.044 150.105 346.393 149.898C346.83 149.631 347.31 149.444 347.812 149.344C348.69 149.344 349.75 149.564 350.991 150.005C351.556 150.208 352.113 150.433 352.66 150.681C352.785 150.737 352.908 150.794 353.032 150.851C354.93 151.74 356.742 152.802 358.445 154.025C358.767 153.557 359.06 152.973 359.324 152.275C359.471 151.883 359.601 151.485 359.715 151.083C359.764 150.91 359.811 150.737 359.855 150.564C360.118 149.523 360.25 148.582 360.25 147.739C359.858 147.577 359.461 147.429 359.058 147.296C357.828 146.889 356.488 146.589 355.036 146.396C353.639 146.216 352.231 146.129 350.822 146.134C346.72 146.134 343.455 146.937 341.025 148.541C338.595 150.146 337.381 152.242 337.381 154.827C337.38 155.207 337.4 155.586 337.441 155.963C337.577 157.344 338.062 158.668 338.852 159.809C338.898 159.875 338.944 159.94 338.991 160.004C339.901 161.28 341.045 162.371 342.362 163.219C342.393 163.239 342.423 163.258 342.453 163.277C343.804 164.134 345.612 165.152 347.879 166.329C350.509 167.622 352.449 168.759 353.697 169.739C353.832 169.845 353.962 169.956 354.087 170.073C354.56 170.492 354.936 171.007 355.192 171.584C355.448 172.161 355.576 172.786 355.569 173.417C355.57 173.654 355.557 173.891 355.532 174.127C355.477 174.779 355.282 175.413 354.96 175.983C354.637 176.553 354.195 177.046 353.664 177.429C352.393 178.366 350.554 178.834 348.147 178.834C347.624 178.834 347.102 178.815 346.581 178.775C345.134 178.673 343.705 178.389 342.329 177.931C342.225 177.896 342.121 177.859 342.018 177.822C340.382 177.229 339.081 176.43 338.116 175.423C337.964 175.71 337.824 176.002 337.697 176.301C337.512 176.731 337.362 177.176 337.247 177.63C337.147 178.031 337.075 178.468 337.031 178.939C336.996 179.327 336.979 179.715 336.979 180.104C338.861 181.007 340.857 181.65 342.911 182.017ZM255.933 174.888L256.401 176.56C255.352 177.818 254.101 178.892 252.7 179.74C252.008 180.164 251.29 180.542 250.55 180.873C248.73 181.705 246.785 182.232 244.794 182.433C244.251 182.485 243.706 182.511 243.161 182.511C238.791 182.511 235.324 181.361 232.76 179.06C232.445 178.777 232.144 178.479 231.86 178.165C229.64 175.72 228.357 172.37 228.011 168.116C227.945 167.299 227.913 166.48 227.914 165.66C227.903 163.745 228.115 161.835 228.546 159.97C228.906 158.432 229.446 156.941 230.154 155.529C231.648 152.565 233.743 150.258 236.44 148.608C238.74 147.215 241.339 146.389 244.022 146.2C244.581 146.156 245.141 146.134 245.702 146.134C247.153 146.129 248.604 146.217 250.044 146.399C251.53 146.592 252.905 146.892 254.17 147.298C254.584 147.43 254.994 147.578 255.398 147.739C255.398 148.622 255.262 149.604 254.991 150.686C254.961 150.807 254.929 150.928 254.896 151.049C254.78 151.482 254.643 151.909 254.487 152.329C254.334 152.74 254.168 153.114 253.991 153.453C253.889 153.649 253.779 153.839 253.659 154.025C251.787 152.732 249.781 151.64 247.641 150.748C245.501 149.857 243.807 149.411 242.559 149.411C241.7 149.626 240.891 150.006 240.176 150.528C239.654 150.9 239.148 151.352 238.656 151.886C238.585 151.963 238.515 152.04 238.446 152.119C237.566 153.132 236.822 154.256 236.232 155.462C235.921 156.093 235.644 156.74 235.404 157.402C234.646 159.475 234.267 161.603 234.267 163.788C234.26 165.04 234.348 166.292 234.529 167.531C234.943 170.244 235.848 172.385 237.243 173.952C238.119 174.945 239.187 175.751 240.383 176.321C241.579 176.89 242.878 177.212 244.201 177.266C244.5 177.286 244.8 177.296 245.1 177.296C248.519 177.296 251.457 176.814 253.913 175.851C254.609 175.579 255.284 175.258 255.933 174.888ZM150.233 182.106C150.715 182.152 151.199 182.175 151.682 182.177C152.975 182.177 154.223 182.043 155.427 181.776C155.329 181.483 155.247 181.186 155.179 180.885C154.67 178.672 154.396 174.779 154.357 169.204C154.401 169.218 154.444 169.23 154.488 169.242C155.056 169.402 155.827 169.523 156.798 169.606C157.241 169.643 157.684 169.674 158.128 169.696C158.654 169.724 159.18 169.738 159.707 169.739C160.195 169.739 160.546 169.726 160.761 169.699C160.812 169.693 160.861 169.684 160.911 169.672C161.144 170.097 161.376 170.522 161.607 170.947C163.719 174.829 165.287 177.886 166.312 180.118C166.627 180.796 166.922 181.482 167.196 182.177C167.896 182.178 168.596 182.156 169.295 182.111C170.014 182.065 170.73 181.987 171.443 181.876C172.713 181.676 173.95 181.308 175.154 180.773C174.922 180.585 174.701 180.385 174.49 180.174C172.524 178.222 170.004 174.231 166.929 168.201C167.492 167.938 168.038 167.639 168.563 167.306C169.918 166.461 171.081 165.343 171.978 164.022C172.437 163.339 172.812 162.602 173.096 161.829C173.539 160.591 173.761 159.285 173.75 157.97C173.755 156.993 173.665 156.018 173.479 155.059C173.079 152.79 171.897 150.733 170.139 149.244C168.502 147.865 166.393 146.954 163.809 146.513C162.497 146.297 161.17 146.193 159.841 146.201C157.564 146.199 155.291 146.364 153.039 146.695C153.022 146.697 153.004 146.7 152.986 146.703C150.735 147.037 148.918 147.472 147.536 148.007C148.152 149.383 148.518 152.628 148.633 157.742C148.661 159.022 148.674 160.301 148.673 161.581C148.673 162.035 148.672 162.489 148.669 162.943C148.65 165.77 148.573 168.927 148.439 172.414C148.405 173.314 148.368 174.213 148.328 175.112C148.204 177.882 148.074 180.103 147.938 181.776C148.164 181.818 148.392 181.858 148.619 181.896C149.188 181.989 149.726 182.059 150.233 182.106ZM192.874 182.177C191.804 182.177 190.534 182.043 189.063 181.776C189.403 178.798 189.621 174.865 189.718 169.979C189.723 169.743 189.727 169.507 189.731 169.271C187.681 164.724 185.34 160.199 182.71 155.697C180.606 152.094 179.044 149.633 178.024 148.313C177.819 148.042 177.597 147.783 177.361 147.538C178.367 147.116 179.414 146.798 180.485 146.591C182.004 146.286 183.704 146.134 185.586 146.134C185.898 147.249 186.845 149.578 188.428 153.122C189.955 156.533 191.606 159.887 193.378 163.178C193.499 163.404 193.621 163.629 193.744 163.855C194.426 162.545 195.093 161.227 195.744 159.901C197.084 157.166 198.145 154.795 198.926 152.788C199.182 152.134 199.426 151.475 199.66 150.813C200.306 148.972 200.672 147.579 200.757 146.634C200.76 146.601 200.763 146.568 200.765 146.535C202.86 146.268 205.179 146.134 207.72 146.134C206.512 147.887 205.377 149.688 204.317 151.534C201.62 156.185 198.675 162.075 195.482 169.204C195.481 170.384 195.494 171.564 195.52 172.743C195.629 177.461 195.973 180.472 196.552 181.776C195.349 182.043 194.123 182.177 192.874 182.177ZM440.948 182.1C441.464 182.15 441.982 182.176 442.5 182.177C443.615 182.177 444.841 182.043 446.178 181.776C445.599 180.182 445.255 176.543 445.146 170.858C445.12 169.438 445.107 168.017 445.108 166.596C445.109 165.213 445.122 163.829 445.148 162.446C445.205 159.239 445.326 155.674 445.51 151.751C446.495 151.781 447.481 151.814 448.466 151.852C451.525 151.971 454.061 152.115 456.075 152.286C456.111 152.07 456.145 151.854 456.178 151.637C456.28 150.959 456.348 150.375 456.383 149.886C456.399 149.661 456.408 149.436 456.409 149.21C456.408 148.792 456.386 148.373 456.34 147.957C456.281 147.412 456.193 146.87 456.075 146.335C455.706 146.463 455.328 146.562 454.944 146.63C452.942 147.013 449.352 147.204 444.172 147.204C441.408 147.204 438.533 147.148 435.546 147.037C435.263 147.026 434.98 147.015 434.697 147.003C433.004 146.934 431.528 146.853 430.271 146.759C429.666 146.716 429.061 146.663 428.458 146.602C428.436 146.729 428.416 146.857 428.395 146.984C428.214 148.14 428.123 149.061 428.123 149.745C428.124 150.086 428.139 150.427 428.17 150.767C428.226 151.368 428.322 151.965 428.458 152.554C428.699 152.475 428.944 152.409 429.191 152.355C430.562 152.049 432.741 151.847 435.729 151.749C436.827 151.714 437.925 151.692 439.023 151.684C439.163 153.412 439.259 155.366 439.311 157.546C439.343 158.935 439.358 160.325 439.357 161.715C439.357 161.771 439.357 161.828 439.357 161.884C439.354 165.54 439.287 169.195 439.157 172.849C439.127 173.696 439.095 174.543 439.059 175.39C438.949 178.009 438.825 180.138 438.689 181.776C438.886 181.813 439.083 181.847 439.281 181.88C439.865 181.977 440.421 182.051 440.948 182.1ZM15.9863 171.773C16.0054 171.352 16.0222 170.93 16.0365 170.508C16.0878 168.955 16.1194 166.847 16.1314 164.183C16.1352 163.316 16.137 162.448 16.1368 161.581C16.1368 155.11 15.901 150.622 15.4293 148.119C15.3389 147.578 15.1951 147.048 15 146.535C16.2037 146.268 17.4296 146.134 18.6779 146.134C19.1905 146.136 19.7028 146.16 20.2132 146.208C20.7441 146.256 21.3065 146.328 21.9003 146.423C22.1194 146.458 22.3381 146.496 22.5563 146.535C22.3334 148.943 22.1551 152.086 22.0214 155.964C21.8876 159.843 21.8207 163.387 21.8207 166.596C21.8203 167.652 21.8256 168.708 21.8368 169.764C21.8667 172.425 21.9369 174.447 22.0474 175.83C22.0597 175.984 22.0733 176.138 22.0882 176.293C23.0888 176.489 24.0991 176.633 25.1148 176.725C26.1455 176.82 27.2386 176.875 28.3941 176.89C28.6103 176.893 28.8265 176.894 29.0427 176.894C30.6476 176.894 32.2413 176.727 33.8239 176.393C35.1127 176.12 36.2317 175.781 37.1808 175.376C37.3909 175.286 37.5983 175.191 37.8027 175.089C37.8027 176.426 37.6467 177.786 37.3346 179.168C37.0225 180.55 36.6882 181.486 36.3316 181.977C34.9536 181.833 33.572 181.726 32.1883 181.656C30.7657 181.582 29.256 181.536 27.6592 181.517C27.1173 181.511 26.5754 181.508 26.0336 181.508C22.2081 181.508 19.1569 181.611 16.8797 181.815C16.3858 181.858 15.8929 181.912 15.4012 181.977C15.6937 177.367 15.8887 173.966 15.9863 171.773ZM404.903 171.773C404.922 171.352 404.939 170.93 404.953 170.508C405.004 168.955 405.036 166.847 405.048 164.183C405.052 163.316 405.053 162.448 405.053 161.581C405.053 155.11 404.817 150.622 404.346 148.119C404.255 147.578 404.111 147.048 403.916 146.535C405.12 146.268 406.346 146.134 407.594 146.134C408.107 146.136 408.619 146.16 409.13 146.208C409.66 146.256 410.223 146.328 410.817 146.423C411.036 146.458 411.254 146.496 411.473 146.535C411.25 148.943 411.071 152.086 410.938 155.964C410.804 159.843 410.737 163.387 410.737 166.596C410.737 167.652 410.742 168.708 410.753 169.764C410.783 172.425 410.853 174.447 410.964 175.83C410.976 175.984 410.99 176.138 411.005 176.293C412.005 176.489 413.015 176.633 414.031 176.725C415.062 176.82 416.155 176.875 417.31 176.89C417.527 176.893 417.743 176.894 417.959 176.894C419.564 176.894 421.158 176.727 422.74 176.393C424.029 176.12 425.148 175.781 426.097 175.376C426.307 175.286 426.515 175.191 426.719 175.089C426.719 176.426 426.563 177.786 426.251 179.168C425.939 180.55 425.605 181.486 425.248 181.977C423.87 181.833 422.488 181.726 421.105 181.656C419.682 181.582 418.172 181.536 416.576 181.517C416.034 181.511 415.492 181.508 414.95 181.508C411.124 181.508 408.073 181.611 405.796 181.815C405.302 181.858 404.809 181.912 404.318 181.977C404.61 177.367 404.805 173.966 404.903 171.773ZM276.395 182.645C273.275 182.645 270.511 181.932 268.103 180.505C265.696 179.079 263.835 177.062 262.52 174.454C261.616 172.636 261.021 170.681 260.76 168.669C260.615 167.605 260.544 166.533 260.547 165.46C260.535 163.545 260.763 161.637 261.226 159.779C261.616 158.24 262.196 156.757 262.954 155.362C264.559 152.42 266.788 150.124 269.641 148.475C272.494 146.825 275.749 146 279.404 146C280.997 145.99 282.585 146.187 284.127 146.587C285.486 146.945 286.789 147.49 287.997 148.207C290.471 149.678 292.388 151.74 293.748 154.393C294.661 156.199 295.269 158.143 295.547 160.147C295.71 161.287 295.791 162.436 295.787 163.587C295.787 167.287 294.963 170.575 293.313 173.451C291.664 176.326 289.368 178.577 286.426 180.204C284.068 181.494 281.471 182.285 278.795 182.528C277.998 182.607 277.197 182.646 276.395 182.645ZM463.921 182.106C464.403 182.152 464.886 182.175 465.37 182.177C466.663 182.177 467.911 182.043 469.115 181.776C468.401 179.814 468.045 174.755 468.045 166.596C468.045 165.491 468.051 164.386 468.064 163.281C468.095 160.719 468.155 158.157 468.245 155.596C468.275 154.738 468.309 153.88 468.347 153.022C468.465 150.37 468.61 148.208 468.78 146.535C468.577 146.498 468.373 146.463 468.169 146.43C467.567 146.333 466.992 146.26 466.446 146.21C465.91 146.161 465.373 146.135 464.835 146.134C463.721 146.134 462.517 146.268 461.224 146.535C461.417 147.051 461.559 147.583 461.651 148.126C462.012 150.049 462.235 153.115 462.321 157.324C462.348 158.743 462.362 160.162 462.361 161.581C462.361 162.915 462.351 164.248 462.333 165.582C462.299 167.938 462.242 170.293 462.16 172.648C462.131 173.515 462.097 174.382 462.059 175.249C461.94 177.928 461.796 180.103 461.625 181.776C461.852 181.818 462.079 181.858 462.307 181.896C462.875 181.989 463.414 182.059 463.921 182.106ZM277.933 179.168C279.22 179.181 280.5 178.993 281.729 178.612C283.522 178.038 285.117 176.967 286.325 175.524C287.491 174.133 288.335 172.502 288.796 170.747C289.135 169.522 289.34 168.182 289.409 166.728C289.426 166.35 289.435 165.972 289.435 165.593C289.435 161.804 288.521 158.672 286.693 156.198C285 153.896 282.51 152.309 279.709 151.745C279.497 151.698 279.284 151.655 279.07 151.618C277.512 151.603 275.968 151.901 274.527 152.494C273.933 152.742 273.361 153.042 272.818 153.39C271.012 154.549 269.546 156.167 268.571 158.078C268.537 158.142 268.504 158.206 268.471 158.271C267.704 159.807 267.214 161.466 267.024 163.173C266.94 163.887 266.898 164.606 266.9 165.326C266.89 166.75 267.027 168.172 267.309 169.568C267.781 171.819 268.659 173.748 269.942 175.356C270.766 176.438 271.81 177.332 273.005 177.981C274.199 178.63 275.518 179.019 276.873 179.122C277.226 179.153 277.579 179.168 277.933 179.168ZM161.646 166.329C163.34 165.616 164.722 164.568 165.792 163.186C166.862 161.804 167.397 160.244 167.397 158.505C167.397 153.361 164.588 150.711 158.971 150.555C158.793 150.55 158.614 150.548 158.436 150.548C157.627 150.545 156.818 150.611 156.02 150.747C155.618 150.816 155.219 150.906 154.825 151.016C154.602 154.27 154.446 158.817 154.357 164.657C155.172 164.95 155.996 165.219 156.826 165.465C158.33 165.906 159.624 166.178 160.709 166.281C161.02 166.312 161.333 166.328 161.646 166.329Z" fill="white" stroke="white" stroke-width="0.944882" stroke-linecap="round"/>
</g>
<g clip-path="url(#clip1_60_34)">
<path fill-rule="evenodd" clip-rule="evenodd" d="M29.8085 0H55.3586V18.6H39.3898C37.3836 19.8703 35.8329 21.7434 34.9611 23.9497C34.3767 25.3267 33.9521 26.9003 33.6871 28.6706C33.4585 30.2634 33.3482 31.8709 33.3571 33.48H51.81V52.08H33.3571V124H9.75872V52.08H0V33.48H9.75872C9.69236 28.5955 10.4944 23.738 12.1274 19.1332C14.7901 11.9093 19.6955 6.09194 26.8436 1.68109C27.8113 1.08522 28.8002 0.524494 29.8085 0ZM62.101 52.08V33.48H106.104C108.336 34.7997 110.454 36.3029 112.436 37.9741C116.067 41.0741 118.628 44.4475 120.121 48.0943C120.946 50.1556 121.589 52.2854 122.041 54.459C123.001 58.9195 123.485 64.219 123.492 70.3576C123.492 70.406 123.492 70.4544 123.492 70.5029V97.0743C123.492 106.876 123.729 115.851 124.202 124H103.975L100.781 117.623C96.1678 121.874 89.662 124 81.2635 124H70.0854C60.0309 117.387 55.0037 107.85 55.0037 95.3914C54.9294 90.2032 55.9732 85.0597 58.0644 80.3095C60.3686 75.2231 63.9729 70.8005 68.8771 67.0415C69.3898 66.6488 69.911 66.2673 70.4402 65.8971H87.1188C91.5046 65.9046 95.7869 67.2285 99.4095 69.6969C99.6323 69.8441 99.8529 69.9947 100.071 70.1486V61.2914C100.071 56.6857 98.0604 53.6152 94.0386 52.08H62.101ZM415.899 52.08V33.48H459.902C462.134 34.7997 464.253 36.3029 466.235 37.9741C469.865 41.0741 472.426 44.4475 473.919 48.0943C474.745 50.1556 475.387 52.2854 475.839 54.459C476.799 58.9195 477.283 64.219 477.29 70.3576C477.29 70.406 477.29 70.4544 477.29 70.5029V97.0743C477.29 106.876 477.527 115.851 478 124H457.773L454.579 117.623C449.966 121.874 443.46 124 435.062 124H423.883C413.829 117.387 408.802 107.85 408.802 95.3914C408.727 90.2032 409.771 85.0597 411.862 80.3095C414.167 75.2231 417.771 70.8005 422.675 67.0415C423.188 66.6488 423.709 66.2673 424.238 65.8971H440.917C445.303 65.9046 449.585 67.2285 453.208 69.6969C453.43 69.8441 453.651 69.9947 453.869 70.1486V61.2914C453.869 56.6857 451.858 53.6152 447.837 52.08H415.899ZM141.235 84.4971V52.08H128.993V33.48H141.235V8.85714H164.834V33.48H179.383V52.08H164.834V90.1657C164.827 91.8366 164.905 93.5068 165.066 95.17C165.42 98.6692 166.177 101.478 167.337 103.597C167.684 104.237 168.093 104.841 168.56 105.4H179.383V124H154.188C147.919 118.213 144.133 111.954 142.832 105.223C142.411 102.938 142.086 100.636 141.86 98.3231C141.444 94.1993 141.235 89.5906 141.235 84.4971ZM382.187 124H358.589V33.48H375.445L379.88 43.0457C381.474 40.8476 383.402 38.9122 385.596 37.3098C389.149 34.762 393.427 33.4196 397.801 33.48H404.721V57.2171H382.187V124ZM243.436 124H204.756C195.855 115.688 190.004 104.636 188.139 92.6121C187.37 88.1177 186.993 83.5652 187.013 79.0057C186.998 75.045 187.254 71.088 187.777 67.1619C188.431 62.3921 189.507 58.0143 191.005 54.0286C192.801 49.3167 195.166 44.8414 198.049 40.7021C199.787 38.1872 201.671 35.7757 203.691 33.48H245.21C250.32 39.367 254.083 45.1112 256.5 50.7125C256.982 51.829 257.419 52.9648 257.808 54.1171C258.771 57.0331 259.501 60.0209 259.99 63.0522C260.486 66.0188 260.826 69.2085 261.012 72.6215C261.126 74.7477 261.181 76.8765 261.179 79.0057C261.179 98.019 255.265 113.017 243.436 124ZM327.893 124H289.213C280.312 115.688 274.462 104.636 272.597 92.6121C271.828 88.1177 271.451 83.5652 271.47 79.0057C271.455 75.045 271.711 71.088 272.235 67.1619C272.889 62.3921 273.965 58.0143 275.462 54.0286C277.258 49.3167 279.624 44.8414 282.506 40.7021C284.245 38.1872 286.129 35.7757 288.148 33.48H329.667C334.777 39.367 338.541 45.1112 340.957 50.7125C341.44 51.829 341.876 52.9648 342.265 54.1171C343.228 57.0331 343.958 60.0209 344.447 63.0522C344.943 66.0188 345.284 69.2085 345.469 72.6215C345.583 74.7477 345.638 76.8765 345.636 79.0057C345.636 98.019 339.722 113.017 327.893 124ZM217.353 105.4H230.838C234.022 99.1406 236.034 92.3533 236.775 85.3722C237.079 82.6703 237.23 79.9533 237.226 77.2343C237.226 66.7238 235.037 58.339 230.661 52.08H217.353C215.48 54.7918 214.055 57.7857 213.131 60.9478C212.319 63.6061 211.735 66.5337 211.379 69.7305C211.095 72.3698 210.957 75.0227 210.966 77.6771C210.945 81.7357 211.271 85.7887 211.94 89.7919C212.732 94.3788 214.007 98.5576 215.764 102.328C216.25 103.374 216.781 104.399 217.353 105.4ZM301.811 105.4H315.295C318.479 99.1406 320.491 92.3533 321.232 85.3722C321.537 82.6703 321.687 79.9533 321.683 77.2343C321.683 66.7238 319.495 58.339 315.118 52.08H301.811C299.938 54.7918 298.512 57.7857 297.588 60.9478C296.776 63.6061 296.193 66.5337 295.837 69.7305C295.553 72.3698 295.415 75.0227 295.423 77.6771C295.402 81.7357 295.728 85.7887 296.397 89.7919C297.19 94.3788 298.464 98.5576 300.221 102.328C300.708 103.374 301.238 104.399 301.811 105.4ZM100.249 105.4V83.08H81.2635C79.455 85.3389 78.2718 88.0319 77.832 90.8902C77.6315 92.1147 77.533 93.3536 77.5375 94.5943C77.5375 98.7158 78.5796 102.034 80.6638 104.548C80.9094 104.844 81.1687 105.128 81.441 105.4H100.249ZM454.047 105.4V83.08H435.062C433.253 85.3389 432.07 88.0319 431.63 90.8902C431.43 92.1147 431.331 93.3536 431.336 94.5943C431.336 98.7158 432.378 102.034 434.462 104.548C434.707 104.844 434.967 105.128 435.239 105.4H454.047Z" fill="white" stroke="white" stroke-width="0.944882" stroke-linecap="round"/>
</g>
<g clip-path="url(#clip2_60_34)">
<path fill-rule="evenodd" clip-rule="evenodd" d="M492 104.167V85.5C491.994 83.8211 492.104 82.1437 492.329 80.48C492.555 78.7859 492.944 77.1181 493.492 75.5C493.985 74.0477 494.62 72.6485 495.389 71.3233C496.03 70.2232 496.784 69.1932 497.638 68.25C498.837 66.9155 500.22 65.7599 501.744 64.8183C502.344 64.4518 502.966 64.1228 503.606 63.8333C505.817 62.8333 508.194 62.3333 510.736 62.3333C511.837 62.3291 512.937 62.4038 514.027 62.5567C515.437 62.7589 516.716 63.1011 517.866 63.5833C518.692 63.9243 519.486 64.3382 520.24 64.82C521.114 65.3768 521.905 66.0546 522.591 66.8333C523.467 67.8288 524.195 68.9472 524.751 70.1533C524.902 70.485 525.039 70.8231 525.161 71.1667C525.705 72.6956 525.981 74.1178 525.99 75.4333C525.99 75.4556 525.99 75.4778 525.99 75.5C525.99 75.9533 525.952 76.4833 525.875 77.09C525.837 77.3942 525.792 77.6976 525.741 78C525.575 79 525.327 79.9444 524.995 80.8333C524.564 80.2895 524.026 79.8412 523.415 79.5167C522.723 79.1658 521.957 78.9885 521.182 79C520.646 78.9945 520.113 79.0573 519.593 79.1867C519.009 79.3225 518.466 79.5953 518.007 79.9829C517.548 80.3706 517.187 80.8619 516.954 81.4167C516.624 82.1718 516.377 82.9609 516.217 83.77C515.99 84.8811 515.876 86.1244 515.876 87.5V124H515.213C513.551 123.995 511.892 123.876 510.247 123.642C509.327 123.513 508.412 123.354 507.503 123.167C504.795 122.611 502.28 121.611 499.959 120.167C498.002 118.938 496.327 117.306 495.044 115.378C494.759 114.957 494.491 114.525 494.239 114.083C492.939 111.809 492.205 109.007 492.038 105.678C492.013 105.175 492 104.671 492 104.167ZM556 22.8333V40.6667C556.006 42.2873 555.898 43.9064 555.677 45.5117C555.417 47.3428 555 49.0333 554.425 50.5833C553.868 52.1089 553.151 53.5705 552.286 54.9433C551.651 55.945 550.924 56.8846 550.114 57.75C548.699 59.28 547.028 60.5491 545.177 61.5C544.758 61.7122 544.331 61.9069 543.897 62.0833C541.575 63.0278 539.144 63.5 536.601 63.5C535.625 63.5039 534.649 63.4454 533.68 63.325C532.16 63.1294 530.813 62.7711 529.638 62.25C528.83 61.8963 528.055 61.4713 527.321 60.98C526.521 60.4459 525.795 59.8082 525.161 59.0833C524.329 58.1323 523.646 57.0595 523.135 55.9017C522.994 55.5793 522.868 55.2506 522.757 54.9167C522.51 54.1812 522.319 53.4279 522.186 52.6633C522.072 52.004 522.013 51.336 522.011 50.6667C522.011 50.2133 522.049 49.6833 522.125 49.0767C522.164 48.7725 522.209 48.4691 522.259 48.1667C522.425 47.1667 522.674 46.2222 523.005 45.3333C523.242 45.5386 523.487 45.7338 523.74 45.9183C523.982 46.0928 524.215 46.2422 524.438 46.3667C524.643 46.4835 524.857 46.5839 525.078 46.6667C525.306 46.749 525.539 46.8191 525.774 46.8767C526.261 46.9967 526.83 47.0933 527.482 47.1667C527.828 47.1693 528.173 47.1347 528.512 47.0633C529.135 46.9267 529.649 46.6556 530.052 46.25C530.66 45.6389 531.13 44.9167 531.461 44.0833C531.71 43.4502 531.881 42.7885 531.969 42.1133C532.003 41.8544 532.028 41.5942 532.042 41.3333C532.089 40.4744 532.116 39.6972 532.123 39.0017C532.124 38.89 532.125 38.7783 532.125 38.6667V3H532.788C534.449 3.00453 536.108 3.12426 537.754 3.35833C538.673 3.48748 539.588 3.64589 540.498 3.83333C543.206 4.38889 545.72 5.38889 548.042 6.83333C549.998 8.06234 551.673 9.69433 552.956 11.6217C553.241 12.0428 553.51 12.4748 553.762 12.9167C555.062 15.1911 555.796 17.9928 555.964 21.3217C555.989 21.8252 556.001 22.3292 556 22.8333ZM519.192 23V60.8333H517.534C514.92 60.8411 512.311 60.5961 509.743 60.1017C509.576 60.0689 509.41 60.035 509.244 60C507.491 59.6428 505.795 59.045 504.203 58.2233C503.508 57.861 502.838 57.4523 502.197 57C500.692 55.9252 499.4 54.5771 498.387 53.025C497.957 52.375 497.569 51.6987 497.223 51C496.68 49.8848 496.266 48.7104 495.989 47.5C495.712 46.3322 495.521 45.06 495.416 43.6833C495.348 42.7905 495.315 41.8954 495.316 41V3H497.969C500.622 3 503.22 3.30556 505.762 3.91667C508.304 4.52778 510.57 5.58333 512.56 7.08333C514.057 8.22449 515.331 9.63435 516.317 11.2417C516.704 11.8626 517.055 12.5053 517.368 13.1667C517.907 14.3234 518.315 15.5378 518.582 16.7867C518.989 18.6167 519.192 20.6878 519.192 23ZM553.347 86.1667V124H551.689C549.075 124.008 546.466 123.763 543.898 123.268C543.732 123.236 543.565 123.202 543.399 123.167C541.646 122.809 539.95 122.212 538.359 121.39C537.664 121.028 536.993 120.619 536.353 120.167C534.847 119.092 533.555 117.744 532.542 116.192C532.113 115.542 531.724 114.865 531.378 114.167C530.835 113.051 530.421 111.877 530.145 110.667C529.867 109.499 529.676 108.227 529.571 106.85C529.504 105.957 529.471 105.062 529.472 104.167V66.1667H532.125C534.777 66.1667 537.375 66.4722 539.917 67.0833C542.46 67.6944 544.726 68.75 546.715 70.25C548.212 71.3911 549.486 72.801 550.472 74.4083C550.859 75.0293 551.21 75.672 551.524 76.3333C552.063 77.49 552.47 78.7045 552.737 79.9533C553.144 81.7833 553.347 83.8544 553.347 86.1667Z" fill="white" stroke="white" stroke-width="0.944882" stroke-linecap="round"/>
</g>
<defs>
<clipPath id="clip0_60_34">
<rect width="526" height="36.6455" fill="white" transform="translate(15 146)"/>
</clipPath>
<clipPath id="clip1_60_34">
<rect width="478" height="124" fill="white"/>
</clipPath>
<clipPath id="clip2_60_34">
<rect width="64" height="121" fill="white" transform="translate(492 3)"/>
</clipPath>
</defs>
</svg>
