<svg width="2175" height="938" viewBox="0 0 2175 938" fill="none" xmlns="http://www.w3.org/2000/svg">
<g clip-path="url(#clip0_61_71)">
<path fill-rule="evenodd" clip-rule="evenodd" d="M92.5839 276.431H171.942V334.202H122.343C116.112 338.147 111.296 343.965 108.588 350.818C106.773 355.094 105.454 359.982 104.631 365.48C103.921 370.428 103.578 375.421 103.606 380.418H160.92V438.189H103.606V661.57H30.3102V438.189H0V380.418H30.3102C30.1041 365.247 32.595 350.16 37.6673 335.858C45.9374 313.421 61.1733 295.352 83.3751 281.652C86.3806 279.801 89.4523 278.06 92.5839 276.431ZM192.883 438.189V380.418H329.555C336.488 384.517 343.067 389.186 349.223 394.377C360.499 404.005 368.455 414.483 373.091 425.81C375.655 432.212 377.65 438.827 379.054 445.578C382.037 459.432 383.54 475.892 383.562 494.959C383.562 495.109 383.562 495.259 383.562 495.41V577.94C383.562 608.384 384.297 636.261 385.766 661.57H322.941L313.022 641.763C298.693 654.967 278.486 661.57 252.401 661.57H217.682C186.454 641.029 170.839 611.41 170.839 572.713C170.608 556.598 173.85 540.623 180.346 525.869C187.503 510.071 198.697 496.334 213.929 484.659C215.522 483.439 217.141 482.254 218.785 481.105H270.587C284.21 481.128 297.51 485.24 308.762 492.906C309.454 493.364 310.139 493.831 310.817 494.309V466.799C310.817 452.494 304.572 442.957 292.08 438.189H192.883ZM1291.77 438.189V380.418H1428.44C1435.37 384.517 1441.95 389.186 1448.11 394.377C1459.38 404.005 1467.34 414.483 1471.97 425.81C1474.54 432.212 1476.53 438.827 1477.94 445.578C1480.92 459.432 1482.42 475.892 1482.44 494.959C1482.44 495.109 1482.44 495.259 1482.44 495.41V577.94C1482.44 608.384 1483.18 636.261 1484.65 661.57H1421.82L1411.9 641.763C1397.58 654.967 1377.37 661.57 1351.28 661.57H1316.57C1285.34 641.029 1269.72 611.41 1269.72 572.713C1269.49 556.598 1272.73 540.623 1279.23 525.869C1286.39 510.071 1297.58 496.334 1312.81 484.659C1314.4 483.439 1316.02 482.254 1317.67 481.105H1369.47C1383.09 481.128 1396.39 485.24 1407.64 492.906C1408.34 493.364 1409.02 493.831 1409.7 494.309V466.799C1409.7 452.494 1403.45 442.957 1390.96 438.189H1291.77ZM438.671 538.875V438.189H400.646V380.418H438.671V303.941H511.967V380.418H557.157V438.189H511.967V556.482C511.947 561.672 512.188 566.859 512.689 572.025C513.787 582.893 516.139 591.617 519.743 598.198C520.82 600.186 522.092 602.062 523.54 603.799H557.157V661.57H478.901C459.429 643.597 447.673 624.156 443.631 603.249C442.322 596.151 441.314 589.001 440.611 581.818C439.318 569.01 438.671 554.695 438.671 538.875ZM1187.06 661.57H1113.76V380.418H1166.12L1179.89 410.129C1184.84 403.302 1190.83 397.291 1197.64 392.314C1208.68 384.4 1221.97 380.231 1235.55 380.418H1257.05V454.145H1187.06V661.57ZM756.102 661.57H635.963C608.318 635.754 590.146 601.427 584.353 564.08C581.965 550.121 580.794 535.981 580.854 521.819C580.809 509.518 581.602 497.227 583.229 485.033C585.261 470.218 588.602 456.621 593.253 444.241C598.831 429.606 606.178 415.706 615.132 402.85C620.531 395.039 626.383 387.549 632.657 380.418H761.613C777.484 398.703 789.173 416.544 796.679 433.942C798.177 437.409 799.532 440.937 800.741 444.516C803.733 453.573 805.999 462.853 807.519 472.268C809.058 481.482 810.116 491.39 810.693 501.99C811.045 508.594 811.218 515.206 811.211 521.819C811.211 580.874 792.841 627.457 756.102 661.57ZM1018.42 661.57H898.284C870.639 635.754 852.467 601.427 846.674 564.08C844.286 550.121 843.115 535.981 843.175 521.819C843.13 509.518 843.923 497.227 845.55 485.033C847.582 470.218 850.923 456.621 855.574 444.241C861.152 429.606 868.5 415.706 877.453 402.85C882.852 395.039 888.704 387.549 894.978 380.418H1023.93C1039.81 398.703 1051.49 416.544 1059 433.942C1060.5 437.409 1061.85 440.937 1063.06 444.516C1066.05 453.573 1068.32 462.853 1069.84 472.268C1071.38 481.482 1072.44 491.39 1073.01 501.99C1073.37 508.594 1073.54 515.206 1073.53 521.819C1073.53 580.874 1055.16 627.457 1018.42 661.57ZM675.091 603.799H716.974C726.862 584.357 733.111 563.276 735.414 541.593C736.359 533.201 736.826 524.762 736.813 516.317C736.813 483.672 730.017 457.629 716.423 438.189H675.091C669.274 446.612 664.846 455.911 661.975 465.732C659.455 473.989 657.641 483.082 656.536 493.011C655.654 501.208 655.225 509.448 655.252 517.693C655.186 530.299 656.199 542.887 658.277 555.321C660.739 569.567 664.697 582.547 670.153 594.258C671.665 597.506 673.312 600.689 675.091 603.799ZM937.412 603.799H979.295C989.183 584.357 995.432 563.276 997.735 541.593C998.68 533.201 999.147 524.762 999.135 516.317C999.135 483.672 992.338 457.629 978.744 438.189H937.412C931.595 446.612 927.167 455.911 924.296 465.732C921.776 473.989 919.962 483.082 918.857 493.011C917.975 501.208 917.546 509.448 917.573 517.693C917.507 530.299 918.52 542.887 920.598 555.321C923.06 569.567 927.018 582.547 932.474 594.258C933.986 597.506 935.633 600.689 937.412 603.799ZM311.368 603.799V534.474H252.401C246.784 541.49 243.109 549.854 241.743 558.732C241.12 562.535 240.814 566.383 240.828 570.237C240.828 583.038 244.065 593.343 250.539 601.152C251.301 602.072 252.107 602.955 252.952 603.799H311.368ZM1410.25 603.799V534.474H1351.28C1345.67 541.49 1341.99 549.854 1340.63 558.732C1340 562.535 1339.7 566.383 1339.71 570.237C1339.71 583.038 1342.95 593.343 1349.42 601.152C1350.18 602.072 1350.99 602.955 1351.84 603.799H1410.25Z" fill="black" stroke="black" stroke-width="0.944882" stroke-linecap="round"/>
</g>
<g clip-path="url(#clip1_61_71)">
<mask id="path-2-outside-1_61_71" maskUnits="userSpaceOnUse" x="1691.37" y="-1.94531" width="486" height="860" fill="black">
<rect fill="white" x="1691.37" y="-1.94531" width="486" height="860"/>
<path d="M2172.06 1.05469C2172.76 1.40288 2173.46 1.75107 2174.17 2.10981C2163.68 24.9954 2153.16 47.8679 2142.54 70.6925C2141.68 72.535 2141.68 72.535 2140.81 74.4148C2130.97 95.5764 2121.03 116.692 2111.05 137.787C2109.83 140.37 2108.61 142.954 2107.38 145.537C2097.71 165.998 2087.96 186.421 2078.06 206.77C2074.01 215.075 2069.99 223.389 2066.02 231.73C2059.29 245.849 2052.46 259.915 2045.63 273.984C2043.82 277.701 2042.02 281.418 2040.22 285.136C2005.38 357.016 2005.38 357.016 1990.57 386.361C1987.57 392.325 1984.6 398.3 1981.75 404.341C1976.69 415.067 1971.47 425.65 1965.87 436.105C1964.15 439.36 1962.44 442.617 1960.72 445.875C1959.55 448.088 1958.36 450.292 1957.15 452.487C1949.9 464.428 1949.9 464.428 1947.93 477.714C1949.56 481.036 1951.41 483.576 1953.78 486.409C1954.82 488.2 1955.83 490.011 1956.8 491.841C1957.86 493.681 1958.91 495.519 1959.97 497.356C1965.47 506.981 1970.74 516.707 1975.92 526.504C1980.85 535.812 1985.85 545.062 1991.08 554.2C1997.69 565.758 2003.9 577.52 2010.1 589.301C2015.04 598.686 2020.04 608.034 2025.14 617.336C2031.01 628.064 2036.8 638.844 2042.59 649.621C2045.67 655.36 2048.76 661.097 2051.85 666.834C2053.08 669.123 2054.31 671.412 2055.54 673.701C2057.99 678.246 2060.44 682.791 2062.88 687.335C2075.29 710.376 2087.65 733.441 2099.92 756.561C2105.14 766.407 2110.38 776.241 2115.65 786.063C2122.2 798.281 2128.72 810.516 2135.21 822.768C2135.94 824.159 2136.68 825.549 2137.42 826.94C2137.77 827.608 2138.12 828.276 2138.49 828.964C2140.55 832.854 2142.63 836.734 2144.72 840.607C2145.18 841.452 2145.63 842.297 2146.1 843.168C2146.9 844.648 2147.7 846.125 2148.51 847.598C2150.09 850.547 2150.97 852.293 2150.97 855.7C2123.41 855.772 2095.85 855.581 2068.29 855.309C2064.87 855.275 2061.45 855.242 2058.03 855.209C2046.06 855.094 2034.08 854.976 2022.1 854.857C2011 854.746 1999.91 854.64 1988.82 854.537C1979.21 854.447 1969.6 854.353 1959.99 854.257C1954.28 854.2 1948.58 854.145 1942.87 854.093C1937.53 854.044 1932.18 853.99 1926.83 853.934C1924.89 853.914 1922.94 853.896 1920.99 853.879C1915.05 853.828 1909.1 853.74 1903.16 853.59C1902.34 853.571 1901.53 853.552 1900.68 853.532C1898.33 853.467 1895.97 853.375 1893.61 853.272C1892.27 853.22 1890.92 853.167 1889.54 853.113C1886.29 852.535 1886.29 852.535 1884.42 850.801C1883.24 848.596 1882.67 846.523 1882.07 844.094C1881.41 842.509 1880.74 840.933 1880.04 839.367C1879.32 837.637 1878.61 835.906 1877.91 834.174C1877.52 833.226 1877.13 832.279 1876.72 831.304C1875.45 828.204 1874.18 825.104 1872.91 822.003C1872.01 819.815 1871.11 817.628 1870.21 815.441C1868.83 812.085 1867.45 808.729 1866.07 805.373C1862.12 795.756 1858.14 786.149 1854.16 776.546C1840.14 742.756 1826.17 708.947 1812.34 675.077C1811.87 673.936 1811.41 672.795 1810.93 671.62C1809.61 668.405 1808.3 665.19 1806.99 661.975C1806.6 661.015 1806.21 660.054 1805.8 659.065C1805.45 658.185 1805.09 657.304 1804.72 656.398C1804.25 655.25 1804.25 655.25 1803.77 654.079C1803.1 652.373 1802.51 650.637 1801.93 648.897C1796.99 656.968 1792.37 665.197 1787.82 673.495C1787.08 674.84 1786.34 676.184 1785.6 677.529C1784.07 680.316 1782.54 683.102 1781.01 685.89C1777.42 692.423 1773.82 698.951 1770.23 705.478C1769.88 706.109 1769.53 706.741 1769.17 707.391C1762.12 720.172 1755.05 732.94 1747.95 745.693C1746.68 747.971 1745.42 750.25 1744.15 752.529C1736.95 765.482 1729.65 778.357 1722.14 791.133C1716.61 800.581 1711.3 810.143 1706.03 819.739C1702.66 825.867 1699.2 831.877 1695.42 837.763C1695.07 837.067 1694.72 836.371 1694.37 835.653C1695.33 833.143 1696.36 830.761 1697.51 828.333C1698.02 827.22 1698.02 827.22 1698.54 826.085C1699.67 823.643 1700.81 821.207 1701.94 818.771C1702.73 817.079 1703.51 815.386 1704.29 813.693C1705.87 810.288 1707.44 806.885 1709.03 803.484C1711.45 798.27 1713.85 793.047 1716.26 787.823C1718.79 782.308 1721.34 776.8 1723.89 771.291C1724.42 770.15 1724.95 769.008 1725.49 767.832C1733.99 749.448 1742.59 731.109 1751.22 712.786C1753.74 707.425 1756.26 702.061 1758.78 696.695C1767.21 678.719 1775.75 660.804 1784.4 642.934C1787.14 637.278 1789.85 631.615 1792.57 625.948C1793.26 624.508 1793.26 624.508 1793.97 623.038C1796.72 617.28 1799.37 611.485 1801.93 605.637C1802.62 605.637 1803.32 605.637 1804.04 605.637C1814.71 628.113 1825.34 650.603 1835.77 673.196C1836.8 675.445 1837.84 677.693 1838.88 679.942C1849.13 702.109 1859.33 724.299 1869.46 746.519C1871.92 751.921 1874.39 757.32 1876.86 762.718C1880.72 771.137 1884.56 779.559 1888.4 787.983C1889.48 790.338 1890.55 792.692 1891.63 795.046C1893.39 798.904 1895.14 802.764 1896.89 806.626C1897.55 808.074 1898.21 809.522 1898.87 810.969C1899.78 812.954 1900.68 814.941 1901.58 816.929C1902.09 818.053 1902.6 819.177 1903.13 820.336C1904.21 822.992 1904.21 822.992 1904.21 825.102C1905.77 825.062 1905.77 825.062 1907.35 825.022C1931.72 824.414 1956.08 824.023 1980.45 823.779C1981.54 823.768 1982.63 823.757 1983.75 823.746C1994.83 823.635 2005.92 823.53 2017 823.434C2043.74 823.201 2070.46 822.756 2097.19 821.937C2085.18 799.191 2085.18 799.191 2072.94 776.567C2067.35 766.382 2061.91 756.124 2056.47 745.858C2051.84 737.116 2047.18 728.393 2042.42 719.722C2036.25 708.474 2030.27 697.129 2024.28 685.782C2019.16 676.083 2014 666.405 2008.81 656.745C2003.27 646.432 1997.84 636.068 1992.47 625.667C1988.93 618.848 1985.3 612.096 1981.59 605.374C1974.36 592.25 1967.59 578.884 1960.77 565.542C1960.35 564.719 1959.93 563.897 1959.5 563.049C1959.09 562.24 1958.67 561.431 1958.25 560.598C1954.08 552.458 1949.83 544.369 1945.55 536.289C1943 531.454 1940.48 526.604 1937.96 521.756C1934.44 514.994 1930.91 508.232 1927.37 501.482C1926.49 499.81 1925.61 498.137 1924.74 496.463C1922.8 492.764 1920.84 489.104 1918.72 485.506C1917.67 483.701 1917.67 483.701 1916.61 481.859C1915.99 480.84 1915.38 479.821 1914.74 478.772C1913.06 474.048 1915.33 470.55 1917.4 466.174C1918.02 464.985 1918.63 463.795 1919.27 462.57C1919.6 461.916 1919.94 461.262 1920.29 460.589C1921.38 458.466 1922.49 456.347 1923.59 454.228C1924.36 452.746 1925.13 451.264 1925.9 449.782C1930.73 440.477 1935.67 431.239 1940.73 422.055C1944.67 414.899 1948.45 407.673 1952.2 400.417C1956.9 391.313 1961.71 382.282 1966.64 373.301C1971.4 364.622 1976.04 355.881 1980.67 347.133C1986.27 336.555 1991.91 326.003 1997.66 315.505C2001.7 308.13 2005.69 300.73 2009.67 293.322C2014.74 283.878 2019.85 274.45 2024.99 265.041C2028.32 258.946 2031.63 252.841 2034.93 246.73C2039.81 237.682 2044.73 228.651 2049.73 219.668C2053.84 212.293 2057.92 204.9 2062 197.505C2062.72 196.186 2063.45 194.868 2064.18 193.55C2067.11 188.223 2070.05 182.897 2072.98 177.57C2082.47 160.342 2091.99 143.13 2101.55 125.939C2103.55 122.338 2105.55 118.735 2107.54 115.131C2121.47 90.0036 2135.66 65.0309 2149.92 40.0941C2152.61 35.3955 2155.29 30.6967 2157.98 25.9974C2159.05 24.1274 2160.12 22.2577 2161.19 20.3881C2164.86 13.9674 2168.5 7.53271 2172.06 1.05469Z"/>
</mask>
<path d="M2172.06 1.05469C2172.76 1.40288 2173.46 1.75107 2174.17 2.10981C2163.68 24.9954 2153.16 47.8679 2142.54 70.6925C2141.68 72.535 2141.68 72.535 2140.81 74.4148C2130.97 95.5764 2121.03 116.692 2111.05 137.787C2109.83 140.37 2108.61 142.954 2107.38 145.537C2097.71 165.998 2087.96 186.421 2078.06 206.77C2074.01 215.075 2069.99 223.389 2066.02 231.73C2059.29 245.849 2052.46 259.915 2045.63 273.984C2043.82 277.701 2042.02 281.418 2040.22 285.136C2005.38 357.016 2005.38 357.016 1990.57 386.361C1987.57 392.325 1984.6 398.3 1981.75 404.341C1976.69 415.067 1971.47 425.65 1965.87 436.105C1964.15 439.36 1962.44 442.617 1960.72 445.875C1959.55 448.088 1958.36 450.292 1957.15 452.487C1949.9 464.428 1949.9 464.428 1947.93 477.714C1949.56 481.036 1951.41 483.576 1953.78 486.409C1954.82 488.2 1955.83 490.011 1956.8 491.841C1957.86 493.681 1958.91 495.519 1959.97 497.356C1965.47 506.981 1970.74 516.707 1975.92 526.504C1980.85 535.812 1985.85 545.062 1991.08 554.2C1997.69 565.758 2003.9 577.52 2010.1 589.301C2015.04 598.686 2020.04 608.034 2025.14 617.336C2031.01 628.064 2036.8 638.844 2042.59 649.621C2045.67 655.36 2048.76 661.097 2051.85 666.834C2053.08 669.123 2054.31 671.412 2055.54 673.701C2057.99 678.246 2060.44 682.791 2062.88 687.335C2075.29 710.376 2087.65 733.441 2099.92 756.561C2105.14 766.407 2110.38 776.241 2115.65 786.063C2122.2 798.281 2128.72 810.516 2135.21 822.768C2135.94 824.159 2136.68 825.549 2137.42 826.94C2137.77 827.608 2138.12 828.276 2138.49 828.964C2140.55 832.854 2142.63 836.734 2144.72 840.607C2145.18 841.452 2145.63 842.297 2146.1 843.168C2146.9 844.648 2147.7 846.125 2148.51 847.598C2150.09 850.547 2150.97 852.293 2150.97 855.7C2123.41 855.772 2095.85 855.581 2068.29 855.309C2064.87 855.275 2061.45 855.242 2058.03 855.209C2046.06 855.094 2034.08 854.976 2022.1 854.857C2011 854.746 1999.91 854.64 1988.82 854.537C1979.21 854.447 1969.6 854.353 1959.99 854.257C1954.28 854.2 1948.58 854.145 1942.87 854.093C1937.53 854.044 1932.18 853.99 1926.83 853.934C1924.89 853.914 1922.94 853.896 1920.99 853.879C1915.05 853.828 1909.1 853.74 1903.16 853.59C1902.34 853.571 1901.53 853.552 1900.68 853.532C1898.33 853.467 1895.97 853.375 1893.61 853.272C1892.27 853.22 1890.92 853.167 1889.54 853.113C1886.29 852.535 1886.29 852.535 1884.42 850.801C1883.24 848.596 1882.67 846.523 1882.07 844.094C1881.41 842.509 1880.74 840.933 1880.04 839.367C1879.32 837.637 1878.61 835.906 1877.91 834.174C1877.52 833.226 1877.13 832.279 1876.72 831.304C1875.45 828.204 1874.18 825.104 1872.91 822.003C1872.01 819.815 1871.11 817.628 1870.21 815.441C1868.83 812.085 1867.45 808.729 1866.07 805.373C1862.12 795.756 1858.14 786.149 1854.16 776.546C1840.14 742.756 1826.17 708.947 1812.34 675.077C1811.87 673.936 1811.41 672.795 1810.93 671.62C1809.61 668.405 1808.3 665.19 1806.99 661.975C1806.6 661.015 1806.21 660.054 1805.8 659.065C1805.45 658.185 1805.09 657.304 1804.72 656.398C1804.25 655.25 1804.25 655.25 1803.77 654.079C1803.1 652.373 1802.51 650.637 1801.93 648.897C1796.99 656.968 1792.37 665.197 1787.82 673.495C1787.08 674.84 1786.34 676.184 1785.6 677.529C1784.07 680.316 1782.54 683.102 1781.01 685.89C1777.42 692.423 1773.82 698.951 1770.23 705.478C1769.88 706.109 1769.53 706.741 1769.17 707.391C1762.12 720.172 1755.05 732.94 1747.95 745.693C1746.68 747.971 1745.42 750.25 1744.15 752.529C1736.95 765.482 1729.65 778.357 1722.14 791.133C1716.61 800.581 1711.3 810.143 1706.03 819.739C1702.66 825.867 1699.2 831.877 1695.42 837.763C1695.07 837.067 1694.72 836.371 1694.37 835.653C1695.33 833.143 1696.36 830.761 1697.51 828.333C1698.02 827.22 1698.02 827.22 1698.54 826.085C1699.67 823.643 1700.81 821.207 1701.94 818.771C1702.73 817.079 1703.51 815.386 1704.29 813.693C1705.87 810.288 1707.44 806.885 1709.03 803.484C1711.45 798.27 1713.85 793.047 1716.26 787.823C1718.79 782.308 1721.34 776.8 1723.89 771.291C1724.42 770.15 1724.95 769.008 1725.49 767.832C1733.99 749.448 1742.59 731.109 1751.22 712.786C1753.74 707.425 1756.26 702.061 1758.78 696.695C1767.21 678.719 1775.75 660.804 1784.4 642.934C1787.14 637.278 1789.85 631.615 1792.57 625.948C1793.26 624.508 1793.26 624.508 1793.97 623.038C1796.72 617.28 1799.37 611.485 1801.93 605.637C1802.62 605.637 1803.32 605.637 1804.04 605.637C1814.71 628.113 1825.34 650.603 1835.77 673.196C1836.8 675.445 1837.84 677.693 1838.88 679.942C1849.13 702.109 1859.33 724.299 1869.46 746.519C1871.92 751.921 1874.39 757.32 1876.86 762.718C1880.72 771.137 1884.56 779.559 1888.4 787.983C1889.48 790.338 1890.55 792.692 1891.63 795.046C1893.39 798.904 1895.14 802.764 1896.89 806.626C1897.55 808.074 1898.21 809.522 1898.87 810.969C1899.78 812.954 1900.68 814.941 1901.58 816.929C1902.09 818.053 1902.6 819.177 1903.13 820.336C1904.21 822.992 1904.21 822.992 1904.21 825.102C1905.77 825.062 1905.77 825.062 1907.35 825.022C1931.72 824.414 1956.08 824.023 1980.45 823.779C1981.54 823.768 1982.63 823.757 1983.75 823.746C1994.83 823.635 2005.92 823.53 2017 823.434C2043.74 823.201 2070.46 822.756 2097.19 821.937C2085.18 799.191 2085.18 799.191 2072.94 776.567C2067.35 766.382 2061.91 756.124 2056.47 745.858C2051.84 737.116 2047.18 728.393 2042.42 719.722C2036.25 708.474 2030.27 697.129 2024.28 685.782C2019.16 676.083 2014 666.405 2008.81 656.745C2003.27 646.432 1997.84 636.068 1992.47 625.667C1988.93 618.848 1985.3 612.096 1981.59 605.374C1974.36 592.25 1967.59 578.884 1960.77 565.542C1960.35 564.719 1959.93 563.897 1959.5 563.049C1959.09 562.24 1958.67 561.431 1958.25 560.598C1954.08 552.458 1949.83 544.369 1945.55 536.289C1943 531.454 1940.48 526.604 1937.96 521.756C1934.44 514.994 1930.91 508.232 1927.37 501.482C1926.49 499.81 1925.61 498.137 1924.74 496.463C1922.8 492.764 1920.84 489.104 1918.72 485.506C1917.67 483.701 1917.67 483.701 1916.61 481.859C1915.99 480.84 1915.38 479.821 1914.74 478.772C1913.06 474.048 1915.33 470.55 1917.4 466.174C1918.02 464.985 1918.63 463.795 1919.27 462.57C1919.6 461.916 1919.94 461.262 1920.29 460.589C1921.38 458.466 1922.49 456.347 1923.59 454.228C1924.36 452.746 1925.13 451.264 1925.9 449.782C1930.73 440.477 1935.67 431.239 1940.73 422.055C1944.67 414.899 1948.45 407.673 1952.2 400.417C1956.9 391.313 1961.71 382.282 1966.64 373.301C1971.4 364.622 1976.04 355.881 1980.67 347.133C1986.27 336.555 1991.91 326.003 1997.66 315.505C2001.7 308.13 2005.69 300.73 2009.67 293.322C2014.74 283.878 2019.85 274.45 2024.99 265.041C2028.32 258.946 2031.63 252.841 2034.93 246.73C2039.81 237.682 2044.73 228.651 2049.73 219.668C2053.84 212.293 2057.92 204.9 2062 197.505C2062.72 196.186 2063.45 194.868 2064.18 193.55C2067.11 188.223 2070.05 182.897 2072.98 177.57C2082.47 160.342 2091.99 143.13 2101.55 125.939C2103.55 122.338 2105.55 118.735 2107.54 115.131C2121.47 90.0036 2135.66 65.0309 2149.92 40.0941C2152.61 35.3955 2155.29 30.6967 2157.98 25.9974C2159.05 24.1274 2160.12 22.2577 2161.19 20.3881C2164.86 13.9674 2168.5 7.53271 2172.06 1.05469Z" fill="black"/>
<path d="M2172.06 1.05469C2172.76 1.40288 2173.46 1.75107 2174.17 2.10981C2163.68 24.9954 2153.16 47.8679 2142.54 70.6925C2141.68 72.535 2141.68 72.535 2140.81 74.4148C2130.97 95.5764 2121.03 116.692 2111.05 137.787C2109.83 140.37 2108.61 142.954 2107.38 145.537C2097.71 165.998 2087.96 186.421 2078.06 206.77C2074.01 215.075 2069.99 223.389 2066.02 231.73C2059.29 245.849 2052.46 259.915 2045.63 273.984C2043.82 277.701 2042.02 281.418 2040.22 285.136C2005.38 357.016 2005.38 357.016 1990.57 386.361C1987.57 392.325 1984.6 398.3 1981.75 404.341C1976.69 415.067 1971.47 425.65 1965.87 436.105C1964.15 439.36 1962.44 442.617 1960.72 445.875C1959.55 448.088 1958.36 450.292 1957.15 452.487C1949.9 464.428 1949.9 464.428 1947.93 477.714C1949.56 481.036 1951.41 483.576 1953.78 486.409C1954.82 488.2 1955.83 490.011 1956.8 491.841C1957.86 493.681 1958.91 495.519 1959.97 497.356C1965.47 506.981 1970.74 516.707 1975.92 526.504C1980.85 535.812 1985.85 545.062 1991.08 554.2C1997.69 565.758 2003.9 577.52 2010.1 589.301C2015.04 598.686 2020.04 608.034 2025.14 617.336C2031.01 628.064 2036.8 638.844 2042.59 649.621C2045.67 655.36 2048.76 661.097 2051.85 666.834C2053.08 669.123 2054.31 671.412 2055.54 673.701C2057.99 678.246 2060.44 682.791 2062.88 687.335C2075.29 710.376 2087.65 733.441 2099.92 756.561C2105.14 766.407 2110.38 776.241 2115.65 786.063C2122.2 798.281 2128.72 810.516 2135.21 822.768C2135.94 824.159 2136.68 825.549 2137.42 826.94C2137.77 827.608 2138.12 828.276 2138.49 828.964C2140.55 832.854 2142.63 836.734 2144.72 840.607C2145.18 841.452 2145.63 842.297 2146.1 843.168C2146.9 844.648 2147.7 846.125 2148.51 847.598C2150.09 850.547 2150.97 852.293 2150.97 855.7C2123.41 855.772 2095.85 855.581 2068.29 855.309C2064.87 855.275 2061.45 855.242 2058.03 855.209C2046.06 855.094 2034.08 854.976 2022.1 854.857C2011 854.746 1999.91 854.64 1988.82 854.537C1979.21 854.447 1969.6 854.353 1959.99 854.257C1954.28 854.2 1948.58 854.145 1942.87 854.093C1937.53 854.044 1932.18 853.99 1926.83 853.934C1924.89 853.914 1922.94 853.896 1920.99 853.879C1915.05 853.828 1909.1 853.74 1903.16 853.59C1902.34 853.571 1901.53 853.552 1900.68 853.532C1898.33 853.467 1895.97 853.375 1893.61 853.272C1892.27 853.22 1890.92 853.167 1889.54 853.113C1886.29 852.535 1886.29 852.535 1884.42 850.801C1883.24 848.596 1882.67 846.523 1882.07 844.094C1881.41 842.509 1880.74 840.933 1880.04 839.367C1879.32 837.637 1878.61 835.906 1877.91 834.174C1877.52 833.226 1877.13 832.279 1876.72 831.304C1875.45 828.204 1874.18 825.104 1872.91 822.003C1872.01 819.815 1871.11 817.628 1870.21 815.441C1868.83 812.085 1867.45 808.729 1866.07 805.373C1862.12 795.756 1858.14 786.149 1854.16 776.546C1840.14 742.756 1826.17 708.947 1812.34 675.077C1811.87 673.936 1811.41 672.795 1810.93 671.62C1809.61 668.405 1808.3 665.19 1806.99 661.975C1806.6 661.015 1806.21 660.054 1805.8 659.065C1805.45 658.185 1805.09 657.304 1804.72 656.398C1804.25 655.25 1804.25 655.25 1803.77 654.079C1803.1 652.373 1802.51 650.637 1801.93 648.897C1796.99 656.968 1792.37 665.197 1787.82 673.495C1787.08 674.84 1786.34 676.184 1785.6 677.529C1784.07 680.316 1782.54 683.102 1781.01 685.89C1777.42 692.423 1773.82 698.951 1770.23 705.478C1769.88 706.109 1769.53 706.741 1769.17 707.391C1762.12 720.172 1755.05 732.94 1747.95 745.693C1746.68 747.971 1745.42 750.25 1744.15 752.529C1736.95 765.482 1729.65 778.357 1722.14 791.133C1716.61 800.581 1711.3 810.143 1706.03 819.739C1702.66 825.867 1699.2 831.877 1695.42 837.763C1695.07 837.067 1694.72 836.371 1694.37 835.653C1695.33 833.143 1696.36 830.761 1697.51 828.333C1698.02 827.22 1698.02 827.22 1698.54 826.085C1699.67 823.643 1700.81 821.207 1701.94 818.771C1702.73 817.079 1703.51 815.386 1704.29 813.693C1705.87 810.288 1707.44 806.885 1709.03 803.484C1711.45 798.27 1713.85 793.047 1716.26 787.823C1718.79 782.308 1721.34 776.8 1723.89 771.291C1724.42 770.15 1724.95 769.008 1725.49 767.832C1733.99 749.448 1742.59 731.109 1751.22 712.786C1753.74 707.425 1756.26 702.061 1758.78 696.695C1767.21 678.719 1775.75 660.804 1784.4 642.934C1787.14 637.278 1789.85 631.615 1792.57 625.948C1793.26 624.508 1793.26 624.508 1793.97 623.038C1796.72 617.28 1799.37 611.485 1801.93 605.637C1802.62 605.637 1803.32 605.637 1804.04 605.637C1814.71 628.113 1825.34 650.603 1835.77 673.196C1836.8 675.445 1837.84 677.693 1838.88 679.942C1849.13 702.109 1859.33 724.299 1869.46 746.519C1871.92 751.921 1874.39 757.32 1876.86 762.718C1880.72 771.137 1884.56 779.559 1888.4 787.983C1889.48 790.338 1890.55 792.692 1891.63 795.046C1893.39 798.904 1895.14 802.764 1896.89 806.626C1897.55 808.074 1898.21 809.522 1898.87 810.969C1899.78 812.954 1900.68 814.941 1901.58 816.929C1902.09 818.053 1902.6 819.177 1903.13 820.336C1904.21 822.992 1904.21 822.992 1904.21 825.102C1905.77 825.062 1905.77 825.062 1907.35 825.022C1931.72 824.414 1956.08 824.023 1980.45 823.779C1981.54 823.768 1982.63 823.757 1983.75 823.746C1994.83 823.635 2005.92 823.53 2017 823.434C2043.74 823.201 2070.46 822.756 2097.19 821.937C2085.18 799.191 2085.18 799.191 2072.94 776.567C2067.35 766.382 2061.91 756.124 2056.47 745.858C2051.84 737.116 2047.18 728.393 2042.42 719.722C2036.25 708.474 2030.27 697.129 2024.28 685.782C2019.16 676.083 2014 666.405 2008.81 656.745C2003.27 646.432 1997.84 636.068 1992.47 625.667C1988.93 618.848 1985.3 612.096 1981.59 605.374C1974.36 592.25 1967.59 578.884 1960.77 565.542C1960.35 564.719 1959.93 563.897 1959.5 563.049C1959.09 562.24 1958.67 561.431 1958.25 560.598C1954.08 552.458 1949.83 544.369 1945.55 536.289C1943 531.454 1940.48 526.604 1937.96 521.756C1934.44 514.994 1930.91 508.232 1927.37 501.482C1926.49 499.81 1925.61 498.137 1924.74 496.463C1922.8 492.764 1920.84 489.104 1918.72 485.506C1917.67 483.701 1917.67 483.701 1916.61 481.859C1915.99 480.84 1915.38 479.821 1914.74 478.772C1913.06 474.048 1915.33 470.55 1917.4 466.174C1918.02 464.985 1918.63 463.795 1919.27 462.57C1919.6 461.916 1919.94 461.262 1920.29 460.589C1921.38 458.466 1922.49 456.347 1923.59 454.228C1924.36 452.746 1925.13 451.264 1925.9 449.782C1930.73 440.477 1935.67 431.239 1940.73 422.055C1944.67 414.899 1948.45 407.673 1952.2 400.417C1956.9 391.313 1961.71 382.282 1966.64 373.301C1971.4 364.622 1976.04 355.881 1980.67 347.133C1986.27 336.555 1991.91 326.003 1997.66 315.505C2001.7 308.13 2005.69 300.73 2009.67 293.322C2014.74 283.878 2019.85 274.45 2024.99 265.041C2028.32 258.946 2031.63 252.841 2034.93 246.73C2039.81 237.682 2044.73 228.651 2049.73 219.668C2053.84 212.293 2057.92 204.9 2062 197.505C2062.72 196.186 2063.45 194.868 2064.18 193.55C2067.11 188.223 2070.05 182.897 2072.98 177.57C2082.47 160.342 2091.99 143.13 2101.55 125.939C2103.55 122.338 2105.55 118.735 2107.54 115.131C2121.47 90.0036 2135.66 65.0309 2149.92 40.0941C2152.61 35.3955 2155.29 30.6967 2157.98 25.9974C2159.05 24.1274 2160.12 22.2577 2161.19 20.3881C2164.86 13.9674 2168.5 7.53271 2172.06 1.05469Z" stroke="black" stroke-width="4" mask="url(#path-2-outside-1_61_71)"/>
<mask id="path-3-outside-2_61_71" maskUnits="userSpaceOnUse" x="1434.26" y="130.822" width="474" height="810" fill="black">
<rect fill="white" x="1434.26" y="130.822" width="474" height="810"/>
<path d="M1466.59 132.945C1578.89 132.738 1578.89 132.738 1629.48 133.373C1632.09 133.406 1634.71 133.438 1637.33 133.47C1662.32 133.777 1687.31 134.363 1712.29 135.056C1713.64 137.559 1714.98 140.063 1716.32 142.568C1716.7 143.269 1717.07 143.97 1717.46 144.693C1720.81 150.951 1723.8 157.34 1726.73 163.807C1732.77 177.016 1739.11 190.071 1745.51 203.111C1752.28 216.906 1758.95 230.726 1765.36 244.693C1770.03 254.851 1774.9 264.903 1779.8 274.953C1786.56 288.826 1793.09 302.794 1799.52 316.823C1800.97 319.92 1802.5 322.978 1804.04 326.032C1807.06 322.39 1809.63 318.685 1812.07 314.632C1812.79 313.441 1813.51 312.25 1814.25 311.023C1815.02 309.739 1815.79 308.455 1816.56 307.172C1817.36 305.837 1818.17 304.502 1818.97 303.168C1820.61 300.465 1822.24 297.761 1823.86 295.056C1827.1 289.678 1830.36 284.311 1833.63 278.947C1834.22 277.974 1834.81 277.001 1835.42 275.998C1842.13 264.984 1848.89 254.004 1855.65 243.025C1857.84 239.479 1860.01 235.931 1862.19 232.382C1868.92 221.41 1875.67 210.451 1882.57 199.583C1885.59 194.818 1888.59 190.038 1891.56 185.244C1892.29 184.084 1893.01 182.924 1893.75 181.729C1895.17 179.446 1896.58 177.163 1898 174.877C1898.64 173.845 1899.28 172.813 1899.94 171.75C1900.51 170.827 1901.08 169.905 1901.67 168.955C1903.16 166.709 1903.16 166.709 1905.27 164.599C1904.61 169.049 1903.08 172.536 1901.07 176.548C1900.58 177.519 1900.58 177.519 1900.09 178.511C1899.02 180.65 1897.95 182.784 1896.87 184.918C1896.12 186.424 1895.36 187.929 1894.61 189.435C1893.03 192.6 1891.44 195.763 1889.85 198.924C1887.84 202.914 1885.84 206.907 1883.84 210.902C1876.33 225.904 1868.78 240.877 1860.92 255.693C1858.39 260.455 1855.98 265.272 1853.6 270.111C1849.94 277.483 1846.18 284.788 1842.33 292.058C1837.57 301.056 1832.93 310.117 1828.29 319.174C1817.69 339.834 1817.69 339.834 1812.6 349.508C1812.01 350.635 1812.01 350.635 1811.41 351.785C1809.04 356.269 1806.57 360.681 1804.04 365.071C1800.68 362.222 1798.92 358.56 1796.93 354.714C1796.36 353.638 1796.36 353.638 1795.79 352.541C1794.98 350.997 1794.17 349.451 1793.37 347.905C1791.66 344.633 1789.95 341.368 1788.23 338.102C1787.36 336.446 1786.49 334.789 1785.62 333.133C1781.88 325.992 1778.08 318.883 1774.25 311.788C1773.65 310.685 1773.06 309.582 1772.44 308.445C1770.67 305.162 1768.9 301.88 1767.13 298.599C1757.01 279.879 1747.01 261.102 1737.08 242.287C1734.19 236.817 1731.3 231.349 1728.4 225.882C1720.83 211.602 1713.27 197.323 1705.84 182.972C1702.45 176.447 1698.96 169.986 1695.42 163.544C1660.47 163.347 1625.53 163.739 1590.58 164.186C1585.72 164.248 1580.86 164.308 1576 164.368C1574.6 164.385 1574.6 164.385 1573.16 164.403C1555.57 164.615 1537.97 164.661 1520.37 164.599C1527.07 177.06 1533.79 189.499 1540.8 201.792C1546.27 211.395 1551.52 221.106 1556.71 230.865C1561.13 239.18 1565.65 247.427 1570.33 255.603C1576.26 265.979 1581.86 276.51 1587.44 287.081C1592.27 296.256 1597.2 305.358 1602.36 314.36C1607.69 323.669 1612.69 333.115 1617.6 342.652C1621.22 349.67 1624.92 356.634 1628.72 363.555C1634 373.157 1639.15 382.821 1644.28 392.504C1649.3 401.987 1654.34 411.455 1659.5 420.861C1665.75 432.237 1671.8 443.711 1677.83 455.202C1681.46 462.094 1685.11 468.953 1688.98 475.71C1689.88 477.308 1689.88 477.308 1690.81 478.937C1691.92 480.869 1693.04 482.79 1694.18 484.699C1697.64 490.778 1697.64 490.778 1697.13 494.859C1696.56 495.901 1696 496.943 1695.42 498.016C1694.87 499.048 1694.87 499.048 1694.31 500.102C1692.93 502.646 1691.48 505.144 1690.02 507.644C1688.86 509.635 1687.71 511.625 1686.56 513.616C1685.95 514.677 1685.33 515.738 1684.7 516.832C1681.66 522.084 1678.66 527.355 1675.65 532.626C1674.22 535.134 1672.79 537.641 1671.36 540.147C1668.45 545.229 1665.55 550.312 1662.66 555.398C1655.09 568.689 1647.48 581.954 1639.76 595.159C1635.28 602.813 1630.84 610.485 1626.41 618.168C1625.76 619.306 1625.1 620.445 1624.43 621.617C1622.43 625.083 1620.44 628.55 1618.44 632.016C1603.54 657.908 1588.49 683.716 1573.38 709.488C1570.72 714.029 1568.06 718.572 1565.4 723.115C1556.11 739.001 1546.76 754.858 1537.37 770.685C1535.41 773.987 1533.46 777.291 1531.5 780.596C1522.3 796.153 1513.04 811.672 1503.64 827.111C1498.75 835.149 1493.9 843.208 1489.06 851.283C1472.06 879.69 1454.62 907.824 1437.06 935.89C1436.01 932.725 1436.01 932.725 1436.94 930.216C1437.44 929.218 1437.94 928.22 1438.45 927.192C1439.31 925.471 1439.31 925.471 1440.18 923.715C1440.82 922.443 1441.47 921.171 1442.11 919.899C1442.78 918.559 1443.45 917.219 1444.12 915.878C1445.94 912.227 1447.77 908.583 1449.61 904.94C1451.54 901.112 1453.45 897.278 1455.37 893.444C1458.6 886.987 1461.84 880.533 1465.08 874.082C1469.63 865.054 1474.15 856.019 1478.68 846.982C1481.84 840.669 1485 834.357 1488.17 828.046C1488.93 826.531 1489.69 825.016 1490.45 823.501C1498.2 808.04 1505.96 792.586 1514.08 777.315C1516.99 771.844 1519.74 766.297 1522.48 760.741C1526.52 752.595 1530.65 744.502 1534.91 736.469C1539.64 727.544 1544.23 718.553 1548.84 709.567C1554.23 699.072 1559.62 688.58 1565.13 678.154C1567.48 673.718 1569.81 669.27 1572.11 664.811C1577.52 654.348 1582.96 643.915 1588.65 633.599C1594.44 623.096 1599.91 612.443 1605.37 601.769C1610.51 591.739 1615.75 581.786 1621.2 571.92C1625.33 564.408 1629.28 556.811 1633.2 549.189C1637.78 540.296 1642.43 531.452 1647.24 522.68C1647.75 521.742 1648.26 520.804 1648.79 519.838C1651.23 515.37 1653.7 510.921 1656.21 506.494C1657.11 504.877 1658.01 503.26 1658.91 501.643C1659.33 500.921 1659.75 500.198 1660.19 499.454C1661.48 497.21 1661.48 497.21 1662.73 493.796C1661.46 489.645 1659.3 485.951 1657.21 482.165C1656.87 481.559 1656.54 480.954 1656.19 480.33C1655.1 478.354 1654.01 476.381 1652.91 474.408C1652.14 473.023 1651.38 471.637 1650.61 470.252C1645.51 461.047 1640.35 451.875 1635.16 442.72C1624.51 423.907 1614.09 404.954 1603.66 386.014C1598.88 377.328 1594.07 368.658 1589.24 359.994C1583.63 349.911 1578.1 339.788 1572.63 329.634C1569.37 323.599 1566.09 317.581 1562.75 311.59C1562.34 310.854 1561.93 310.118 1561.51 309.36C1560.86 308.205 1560.86 308.205 1560.21 307.027C1550.32 289.276 1540.53 271.474 1530.93 253.569C1527.06 246.363 1523.17 239.171 1519.25 231.994C1513.14 220.81 1507.07 209.606 1501.01 198.397C1497.59 192.065 1494.16 185.736 1490.73 179.406C1487.77 173.934 1484.81 168.461 1481.85 162.987C1481.23 161.855 1480.62 160.723 1479.99 159.556C1478.83 157.405 1477.66 155.253 1476.5 153.102C1475.97 152.12 1475.44 151.139 1474.89 150.128C1474.14 148.725 1474.14 148.725 1473.36 147.293C1471.46 143.813 1469.5 140.367 1467.52 136.929C1466.59 135.056 1466.59 135.056 1466.59 132.945Z"/>
</mask>
<path d="M1466.59 132.945C1578.89 132.738 1578.89 132.738 1629.48 133.373C1632.09 133.406 1634.71 133.438 1637.33 133.47C1662.32 133.777 1687.31 134.363 1712.29 135.056C1713.64 137.559 1714.98 140.063 1716.32 142.568C1716.7 143.269 1717.07 143.97 1717.46 144.693C1720.81 150.951 1723.8 157.34 1726.73 163.807C1732.77 177.016 1739.11 190.071 1745.51 203.111C1752.28 216.906 1758.95 230.726 1765.36 244.693C1770.03 254.851 1774.9 264.903 1779.8 274.953C1786.56 288.826 1793.09 302.794 1799.52 316.823C1800.97 319.92 1802.5 322.978 1804.04 326.032C1807.06 322.39 1809.63 318.685 1812.07 314.632C1812.79 313.441 1813.51 312.25 1814.25 311.023C1815.02 309.739 1815.79 308.455 1816.56 307.172C1817.36 305.837 1818.17 304.502 1818.97 303.168C1820.61 300.465 1822.24 297.761 1823.86 295.056C1827.1 289.678 1830.36 284.311 1833.63 278.947C1834.22 277.974 1834.81 277.001 1835.42 275.998C1842.13 264.984 1848.89 254.004 1855.65 243.025C1857.84 239.479 1860.01 235.931 1862.19 232.382C1868.92 221.41 1875.67 210.451 1882.57 199.583C1885.59 194.818 1888.59 190.038 1891.56 185.244C1892.29 184.084 1893.01 182.924 1893.75 181.729C1895.17 179.446 1896.58 177.163 1898 174.877C1898.64 173.845 1899.28 172.813 1899.94 171.75C1900.51 170.827 1901.08 169.905 1901.67 168.955C1903.16 166.709 1903.16 166.709 1905.27 164.599C1904.61 169.049 1903.08 172.536 1901.07 176.548C1900.58 177.519 1900.58 177.519 1900.09 178.511C1899.02 180.65 1897.95 182.784 1896.87 184.918C1896.12 186.424 1895.36 187.929 1894.61 189.435C1893.03 192.6 1891.44 195.763 1889.85 198.924C1887.84 202.914 1885.84 206.907 1883.84 210.902C1876.33 225.904 1868.78 240.877 1860.92 255.693C1858.39 260.455 1855.98 265.272 1853.6 270.111C1849.94 277.483 1846.18 284.788 1842.33 292.058C1837.57 301.056 1832.93 310.117 1828.29 319.174C1817.69 339.834 1817.69 339.834 1812.6 349.508C1812.01 350.635 1812.01 350.635 1811.41 351.785C1809.04 356.269 1806.57 360.681 1804.04 365.071C1800.68 362.222 1798.92 358.56 1796.93 354.714C1796.36 353.638 1796.36 353.638 1795.79 352.541C1794.98 350.997 1794.17 349.451 1793.37 347.905C1791.66 344.633 1789.95 341.368 1788.23 338.102C1787.36 336.446 1786.49 334.789 1785.62 333.133C1781.88 325.992 1778.08 318.883 1774.25 311.788C1773.65 310.685 1773.06 309.582 1772.44 308.445C1770.67 305.162 1768.9 301.88 1767.13 298.599C1757.01 279.879 1747.01 261.102 1737.08 242.287C1734.19 236.817 1731.3 231.349 1728.4 225.882C1720.83 211.602 1713.27 197.323 1705.84 182.972C1702.45 176.447 1698.96 169.986 1695.42 163.544C1660.47 163.347 1625.53 163.739 1590.58 164.186C1585.72 164.248 1580.86 164.308 1576 164.368C1574.6 164.385 1574.6 164.385 1573.16 164.403C1555.57 164.615 1537.97 164.661 1520.37 164.599C1527.07 177.06 1533.79 189.499 1540.8 201.792C1546.27 211.395 1551.52 221.106 1556.71 230.865C1561.13 239.18 1565.65 247.427 1570.33 255.603C1576.26 265.979 1581.86 276.51 1587.44 287.081C1592.27 296.256 1597.2 305.358 1602.36 314.36C1607.69 323.669 1612.69 333.115 1617.6 342.652C1621.22 349.67 1624.92 356.634 1628.72 363.555C1634 373.157 1639.15 382.821 1644.28 392.504C1649.3 401.987 1654.34 411.455 1659.5 420.861C1665.75 432.237 1671.8 443.711 1677.83 455.202C1681.46 462.094 1685.11 468.953 1688.98 475.71C1689.88 477.308 1689.88 477.308 1690.81 478.937C1691.92 480.869 1693.04 482.79 1694.18 484.699C1697.64 490.778 1697.64 490.778 1697.13 494.859C1696.56 495.901 1696 496.943 1695.42 498.016C1694.87 499.048 1694.87 499.048 1694.31 500.102C1692.93 502.646 1691.48 505.144 1690.02 507.644C1688.86 509.635 1687.71 511.625 1686.56 513.616C1685.95 514.677 1685.33 515.738 1684.7 516.832C1681.66 522.084 1678.66 527.355 1675.65 532.626C1674.22 535.134 1672.79 537.641 1671.36 540.147C1668.45 545.229 1665.55 550.312 1662.66 555.398C1655.09 568.689 1647.48 581.954 1639.76 595.159C1635.28 602.813 1630.84 610.485 1626.41 618.168C1625.76 619.306 1625.1 620.445 1624.43 621.617C1622.43 625.083 1620.44 628.55 1618.44 632.016C1603.54 657.908 1588.49 683.716 1573.38 709.488C1570.72 714.029 1568.06 718.572 1565.4 723.115C1556.11 739.001 1546.76 754.858 1537.37 770.685C1535.41 773.987 1533.46 777.291 1531.5 780.596C1522.3 796.153 1513.04 811.672 1503.64 827.111C1498.75 835.149 1493.9 843.208 1489.06 851.283C1472.06 879.69 1454.62 907.824 1437.06 935.89C1436.01 932.725 1436.01 932.725 1436.94 930.216C1437.44 929.218 1437.94 928.22 1438.45 927.192C1439.31 925.471 1439.31 925.471 1440.18 923.715C1440.82 922.443 1441.47 921.171 1442.11 919.899C1442.78 918.559 1443.45 917.219 1444.12 915.878C1445.94 912.227 1447.77 908.583 1449.61 904.94C1451.54 901.112 1453.45 897.278 1455.37 893.444C1458.6 886.987 1461.84 880.533 1465.08 874.082C1469.63 865.054 1474.15 856.019 1478.68 846.982C1481.84 840.669 1485 834.357 1488.17 828.046C1488.93 826.531 1489.69 825.016 1490.45 823.501C1498.2 808.04 1505.96 792.586 1514.08 777.315C1516.99 771.844 1519.74 766.297 1522.48 760.741C1526.52 752.595 1530.65 744.502 1534.91 736.469C1539.64 727.544 1544.23 718.553 1548.84 709.567C1554.23 699.072 1559.62 688.58 1565.13 678.154C1567.48 673.718 1569.81 669.27 1572.11 664.811C1577.52 654.348 1582.96 643.915 1588.65 633.599C1594.44 623.096 1599.91 612.443 1605.37 601.769C1610.51 591.739 1615.75 581.786 1621.2 571.92C1625.33 564.408 1629.28 556.811 1633.2 549.189C1637.78 540.296 1642.43 531.452 1647.24 522.68C1647.75 521.742 1648.26 520.804 1648.79 519.838C1651.23 515.37 1653.7 510.921 1656.21 506.494C1657.11 504.877 1658.01 503.26 1658.91 501.643C1659.33 500.921 1659.75 500.198 1660.19 499.454C1661.48 497.21 1661.48 497.21 1662.73 493.796C1661.46 489.645 1659.3 485.951 1657.21 482.165C1656.87 481.559 1656.54 480.954 1656.19 480.33C1655.1 478.354 1654.01 476.381 1652.91 474.408C1652.14 473.023 1651.38 471.637 1650.61 470.252C1645.51 461.047 1640.35 451.875 1635.16 442.72C1624.51 423.907 1614.09 404.954 1603.66 386.014C1598.88 377.328 1594.07 368.658 1589.24 359.994C1583.63 349.911 1578.1 339.788 1572.63 329.634C1569.37 323.599 1566.09 317.581 1562.75 311.59C1562.34 310.854 1561.93 310.118 1561.51 309.36C1560.86 308.205 1560.86 308.205 1560.21 307.027C1550.32 289.276 1540.53 271.474 1530.93 253.569C1527.06 246.363 1523.17 239.171 1519.25 231.994C1513.14 220.81 1507.07 209.606 1501.01 198.397C1497.59 192.065 1494.16 185.736 1490.73 179.406C1487.77 173.934 1484.81 168.461 1481.85 162.987C1481.23 161.855 1480.62 160.723 1479.99 159.556C1478.83 157.405 1477.66 155.253 1476.5 153.102C1475.97 152.12 1475.44 151.139 1474.89 150.128C1474.14 148.725 1474.14 148.725 1473.36 147.293C1471.46 143.813 1469.5 140.367 1467.52 136.929C1466.59 135.056 1466.59 135.056 1466.59 132.945Z" fill="black"/>
<path d="M1466.59 132.945C1578.89 132.738 1578.89 132.738 1629.48 133.373C1632.09 133.406 1634.71 133.438 1637.33 133.47C1662.32 133.777 1687.31 134.363 1712.29 135.056C1713.64 137.559 1714.98 140.063 1716.32 142.568C1716.7 143.269 1717.07 143.97 1717.46 144.693C1720.81 150.951 1723.8 157.34 1726.73 163.807C1732.77 177.016 1739.11 190.071 1745.51 203.111C1752.28 216.906 1758.95 230.726 1765.36 244.693C1770.03 254.851 1774.9 264.903 1779.8 274.953C1786.56 288.826 1793.09 302.794 1799.52 316.823C1800.97 319.92 1802.5 322.978 1804.04 326.032C1807.06 322.39 1809.63 318.685 1812.07 314.632C1812.79 313.441 1813.51 312.25 1814.25 311.023C1815.02 309.739 1815.79 308.455 1816.56 307.172C1817.36 305.837 1818.17 304.502 1818.97 303.168C1820.61 300.465 1822.24 297.761 1823.86 295.056C1827.1 289.678 1830.36 284.311 1833.63 278.947C1834.22 277.974 1834.81 277.001 1835.42 275.998C1842.13 264.984 1848.89 254.004 1855.65 243.025C1857.84 239.479 1860.01 235.931 1862.19 232.382C1868.92 221.41 1875.67 210.451 1882.57 199.583C1885.59 194.818 1888.59 190.038 1891.56 185.244C1892.29 184.084 1893.01 182.924 1893.75 181.729C1895.17 179.446 1896.58 177.163 1898 174.877C1898.64 173.845 1899.28 172.813 1899.94 171.75C1900.51 170.827 1901.08 169.905 1901.67 168.955C1903.16 166.709 1903.16 166.709 1905.27 164.599C1904.61 169.049 1903.08 172.536 1901.07 176.548C1900.58 177.519 1900.58 177.519 1900.09 178.511C1899.02 180.65 1897.95 182.784 1896.87 184.918C1896.12 186.424 1895.36 187.929 1894.61 189.435C1893.03 192.6 1891.44 195.763 1889.85 198.924C1887.84 202.914 1885.84 206.907 1883.84 210.902C1876.33 225.904 1868.78 240.877 1860.92 255.693C1858.39 260.455 1855.98 265.272 1853.6 270.111C1849.94 277.483 1846.18 284.788 1842.33 292.058C1837.57 301.056 1832.93 310.117 1828.29 319.174C1817.69 339.834 1817.69 339.834 1812.6 349.508C1812.01 350.635 1812.01 350.635 1811.41 351.785C1809.04 356.269 1806.57 360.681 1804.04 365.071C1800.68 362.222 1798.92 358.56 1796.93 354.714C1796.36 353.638 1796.36 353.638 1795.79 352.541C1794.98 350.997 1794.17 349.451 1793.37 347.905C1791.66 344.633 1789.95 341.368 1788.23 338.102C1787.36 336.446 1786.49 334.789 1785.62 333.133C1781.88 325.992 1778.08 318.883 1774.25 311.788C1773.65 310.685 1773.06 309.582 1772.44 308.445C1770.67 305.162 1768.9 301.88 1767.13 298.599C1757.01 279.879 1747.01 261.102 1737.08 242.287C1734.19 236.817 1731.3 231.349 1728.4 225.882C1720.83 211.602 1713.27 197.323 1705.84 182.972C1702.45 176.447 1698.96 169.986 1695.42 163.544C1660.47 163.347 1625.53 163.739 1590.58 164.186C1585.72 164.248 1580.86 164.308 1576 164.368C1574.6 164.385 1574.6 164.385 1573.16 164.403C1555.57 164.615 1537.97 164.661 1520.37 164.599C1527.07 177.06 1533.79 189.499 1540.8 201.792C1546.27 211.395 1551.52 221.106 1556.71 230.865C1561.13 239.18 1565.65 247.427 1570.33 255.603C1576.26 265.979 1581.86 276.51 1587.44 287.081C1592.27 296.256 1597.2 305.358 1602.36 314.36C1607.69 323.669 1612.69 333.115 1617.6 342.652C1621.22 349.67 1624.92 356.634 1628.72 363.555C1634 373.157 1639.15 382.821 1644.28 392.504C1649.3 401.987 1654.34 411.455 1659.5 420.861C1665.75 432.237 1671.8 443.711 1677.83 455.202C1681.46 462.094 1685.11 468.953 1688.98 475.71C1689.88 477.308 1689.88 477.308 1690.81 478.937C1691.92 480.869 1693.04 482.79 1694.18 484.699C1697.64 490.778 1697.64 490.778 1697.13 494.859C1696.56 495.901 1696 496.943 1695.42 498.016C1694.87 499.048 1694.87 499.048 1694.31 500.102C1692.93 502.646 1691.48 505.144 1690.02 507.644C1688.86 509.635 1687.71 511.625 1686.56 513.616C1685.95 514.677 1685.33 515.738 1684.7 516.832C1681.66 522.084 1678.66 527.355 1675.65 532.626C1674.22 535.134 1672.79 537.641 1671.36 540.147C1668.45 545.229 1665.55 550.312 1662.66 555.398C1655.09 568.689 1647.48 581.954 1639.76 595.159C1635.28 602.813 1630.84 610.485 1626.41 618.168C1625.76 619.306 1625.1 620.445 1624.43 621.617C1622.43 625.083 1620.44 628.55 1618.44 632.016C1603.54 657.908 1588.49 683.716 1573.38 709.488C1570.72 714.029 1568.06 718.572 1565.4 723.115C1556.11 739.001 1546.76 754.858 1537.37 770.685C1535.41 773.987 1533.46 777.291 1531.5 780.596C1522.3 796.153 1513.04 811.672 1503.64 827.111C1498.75 835.149 1493.9 843.208 1489.06 851.283C1472.06 879.69 1454.62 907.824 1437.06 935.89C1436.01 932.725 1436.01 932.725 1436.94 930.216C1437.44 929.218 1437.94 928.22 1438.45 927.192C1439.31 925.471 1439.31 925.471 1440.18 923.715C1440.82 922.443 1441.47 921.171 1442.11 919.899C1442.78 918.559 1443.45 917.219 1444.12 915.878C1445.94 912.227 1447.77 908.583 1449.61 904.94C1451.54 901.112 1453.45 897.278 1455.37 893.444C1458.6 886.987 1461.84 880.533 1465.08 874.082C1469.63 865.054 1474.15 856.019 1478.68 846.982C1481.84 840.669 1485 834.357 1488.17 828.046C1488.93 826.531 1489.69 825.016 1490.45 823.501C1498.2 808.04 1505.96 792.586 1514.08 777.315C1516.99 771.844 1519.74 766.297 1522.48 760.741C1526.52 752.595 1530.65 744.502 1534.91 736.469C1539.64 727.544 1544.23 718.553 1548.84 709.567C1554.23 699.072 1559.62 688.58 1565.13 678.154C1567.48 673.718 1569.81 669.27 1572.11 664.811C1577.52 654.348 1582.96 643.915 1588.65 633.599C1594.44 623.096 1599.91 612.443 1605.37 601.769C1610.51 591.739 1615.75 581.786 1621.2 571.92C1625.33 564.408 1629.28 556.811 1633.2 549.189C1637.78 540.296 1642.43 531.452 1647.24 522.68C1647.75 521.742 1648.26 520.804 1648.79 519.838C1651.23 515.37 1653.7 510.921 1656.21 506.494C1657.11 504.877 1658.01 503.26 1658.91 501.643C1659.33 500.921 1659.75 500.198 1660.19 499.454C1661.48 497.21 1661.48 497.21 1662.73 493.796C1661.46 489.645 1659.3 485.951 1657.21 482.165C1656.87 481.559 1656.54 480.954 1656.19 480.33C1655.1 478.354 1654.01 476.381 1652.91 474.408C1652.14 473.023 1651.38 471.637 1650.61 470.252C1645.51 461.047 1640.35 451.875 1635.16 442.72C1624.51 423.907 1614.09 404.954 1603.66 386.014C1598.88 377.328 1594.07 368.658 1589.24 359.994C1583.63 349.911 1578.1 339.788 1572.63 329.634C1569.37 323.599 1566.09 317.581 1562.75 311.59C1562.34 310.854 1561.93 310.118 1561.51 309.36C1560.86 308.205 1560.86 308.205 1560.21 307.027C1550.32 289.276 1540.53 271.474 1530.93 253.569C1527.06 246.363 1523.17 239.171 1519.25 231.994C1513.14 220.81 1507.07 209.606 1501.01 198.397C1497.59 192.065 1494.16 185.736 1490.73 179.406C1487.77 173.934 1484.81 168.461 1481.85 162.987C1481.23 161.855 1480.62 160.723 1479.99 159.556C1478.83 157.405 1477.66 155.253 1476.5 153.102C1475.97 152.12 1475.44 151.139 1474.89 150.128C1474.14 148.725 1474.14 148.725 1473.36 147.293C1471.46 143.813 1469.5 140.367 1467.52 136.929C1466.59 135.056 1466.59 135.056 1466.59 132.945Z" stroke="black" stroke-width="4" mask="url(#path-3-outside-2_61_71)"/>
</g>
<defs>
<clipPath id="clip0_61_71">
<rect width="1484.65" height="385.139" fill="white" transform="translate(0 276.431)"/>
</clipPath>
<clipPath id="clip1_61_71">
<rect width="739.219" height="938" fill="white" transform="translate(1434.95)"/>
</clipPath>
</defs>
</svg>
