<svg width="279" height="228" viewBox="0 0 279 228" fill="none" xmlns="http://www.w3.org/2000/svg">
<path d="M19.91 58.0502V124.93H83.54V132.07H19.91V202.41H0V50.9102H98.69V58.0502H19.91Z" fill="#403F44"/>
<path d="M213.11 40.0291C205.86 54.7191 197.58 70.7191 190 85.2491L188.27 88.5191C187.1 86.3691 181.38 75.6691 180.09 73.2891C175.74 65.2691 165.53 45.8591 161.14 37.5391L164.01 39.3091C152.59 39.4791 136.97 39.6291 125.55 39.7691L112.73 39.8491L116.03 34.2891C121.79 44.6991 133.26 65.6291 138.94 76.0791C145.08 87.3691 156.36 108.439 162.37 119.789C158.14 127.279 150.44 140.749 146.11 148.199C130.87 174.589 114.79 201.939 98.6899 227.799C103.19 218.529 107.79 209.319 112.44 200.129L119.45 186.369C128.45 168.869 138.85 149.059 148.09 131.659L155.4 118.069V121.399C144.96 102.909 130.93 77.4991 120.78 58.8491C118.68 54.9591 108.31 35.8491 106.39 32.2891L112.72 32.3291C129.55 32.4291 149.22 32.6891 166.04 32.8991C173.12 47.7091 183.2 68.6191 190.04 83.3591L186.51 83.2791C188.67 79.6491 190.89 76.0391 193.08 72.4191C199.17 62.3491 206.82 49.9091 213.1 40.0191L213.11 40.0291Z" fill="#403F44"/>
<path d="M161.61 203.86C169.47 186.47 178.03 168.34 186.29 151.12L188.19 147.19C189.43 149.85 194.69 161.16 196.03 164.05C200.09 172.71 209.58 193.6 213.69 202.57L210.7 200.61C219.93 200.51 243.61 200.25 252.54 200.17L266.49 200.09L263.16 205.65C257.19 194.62 245.29 172.44 239.41 161.37C233.52 150.32 221.8 128 216.04 116.88L215.19 115.25L216.01 113.69C225.48 95.73 236.94 74.4 246.69 56.59C256.76 38.19 267.87 18.1 278.36 0C271.95 14.17 264.5 29.93 257.77 44.07C246.52 67.5 233.78 93.61 222.11 116.83L222.08 113.64C238.44 143.25 256.97 177.8 272.8 207.68C253.66 207.68 227.8 207.27 208.52 207.1C201.97 191.17 192.56 168.75 186.23 152.91L190.02 153.03C187.71 157.3 185.37 161.55 183.01 165.79C176.23 178.13 168.61 191.72 161.61 203.86Z" fill="#403F44"/>
</svg>
