<svg width="935" height="223" viewBox="0 0 935 223" fill="none" xmlns="http://www.w3.org/2000/svg">
<g clip-path="url(#clip0_67_101)">
<path d="M76.81 59.9013V54.3613H0V172.261H15.49V117.511H65.02V111.951H15.49V59.9113H76.81V59.9013Z" fill="white"/>
<path d="M122.66 54.3613H107.32L64.22 172.261H70.12L86.95 125.951L109.53 64.1313L131.92 125.951L148.77 172.261H165.1L122.67 54.3613H122.66Z" fill="white"/>
<path d="M157.28 54.3613V59.9013H193.84V172.261H209.33V59.9013H246.22V54.3613H157.28Z" fill="white"/>
<path d="M361.97 80.8804C356.24 71.7304 348.6 64.7404 339.07 59.8904C329.52 55.0804 319.13 52.6504 307.91 52.6504C296.69 52.6504 286.3 55.0804 276.75 59.8904C267.2 64.7404 259.56 71.7304 253.86 80.8804C248.13 90.0304 245.26 100.77 245.26 113.13C245.26 125.49 248.14 136.26 253.86 145.47C259.57 154.66 267.21 161.71 276.75 166.6C286.3 171.49 296.69 173.92 307.91 173.92C319.13 173.92 329.52 171.49 339.07 166.6C348.6 161.71 356.24 154.66 361.97 145.47C367.7 136.26 370.57 125.47 370.57 113.13C370.57 100.79 367.7 90.0204 361.97 80.8804ZM349 143.1C344.64 151.54 338.84 157.89 331.67 162.22C324.47 166.54 316.73 168.7 308.42 168.7C300.11 168.7 292.37 166.54 285.17 162.22C277.99 157.9 272.2 151.54 267.84 143.1C263.45 134.68 261.27 124.7 261.27 113.13C261.27 101.56 263.45 91.6004 267.84 83.2304C272.21 74.8804 278 68.5604 285.17 64.2804C292.37 60.0204 300.11 57.8804 308.42 57.8804C316.73 57.8804 324.47 60.0204 331.67 64.2804C338.85 68.5604 344.64 74.8804 349 83.2304C353.39 91.6004 355.57 101.57 355.57 113.13C355.57 124.69 353.39 134.68 349 143.1Z" fill="white"/>
<path d="M500.65 80.8804C494.92 71.7304 487.28 64.7404 477.73 59.8904C468.18 55.0804 457.79 52.6504 446.57 52.6504C435.35 52.6504 424.96 55.0804 415.41 59.8904C405.88 64.7404 398.24 71.7304 392.52 80.8804C386.79 90.0304 383.94 100.77 383.94 113.13C383.94 125.49 386.79 136.26 392.52 145.47C398.25 154.66 405.89 161.71 415.41 166.6C424.96 171.49 435.35 173.92 446.57 173.92C457.79 173.92 468.18 171.49 477.73 166.6C487.28 161.71 494.92 154.66 500.65 145.47C506.36 136.26 509.23 125.47 509.23 113.13C509.23 100.79 506.35 90.0204 500.65 80.8804ZM487.66 143.1C483.29 151.54 477.5 157.89 470.33 162.22C463.13 166.54 455.39 168.7 447.08 168.7C438.77 168.7 431.03 166.54 423.85 162.22C416.65 157.9 410.88 151.54 406.5 143.1C402.11 134.68 399.93 124.7 399.93 113.13C399.93 101.56 402.11 91.6004 406.5 83.2304C410.89 74.8804 416.66 68.5604 423.85 64.2804C431.03 60.0204 438.77 57.8804 447.08 57.8804C455.39 57.8804 463.13 60.0204 470.33 64.2804C477.51 68.5604 483.3 74.8804 487.66 83.2304C492.05 91.6004 494.25 101.57 494.25 113.13C494.25 124.69 492.05 134.68 487.66 143.1Z" fill="white"/>
<path d="M607 107.161C613.74 101.371 617.11 94.1113 617.11 85.3413C617.11 76.5713 613.5 68.8213 606.32 63.0313C599.14 57.2413 588.02 54.3613 572.97 54.3613H527.33V172.261H542.82V116.331H557.82L598.74 172.261H617.1L575.82 116.331C589.86 115.991 600.25 112.931 606.98 107.161H607ZM542.83 110.931V59.8913H569.78C580.57 59.8913 588.54 62.1113 593.7 66.5613C598.86 70.9913 601.44 77.2413 601.44 85.3213C601.44 93.4013 598.86 99.6913 593.7 104.191C588.54 108.681 580.56 110.931 569.78 110.931H542.83Z" fill="white"/>
<path d="M690.46 54.3613H675.14L632.02 172.261H637.92L654.77 125.951L677.33 64.1313L699.74 125.951L716.57 172.261H732.92L690.47 54.3613H690.46Z" fill="white"/>
<path d="M870.73 39.0398C863.66 53.3698 855.58 68.9698 848.2 83.1398L846.51 86.3298C845.37 84.2298 839.79 73.7998 838.53 71.4798C834.28 63.6598 824.33 44.7298 820.05 36.6198L822.85 38.3398C811.71 38.4998 796.48 38.6598 785.34 38.7898L772.84 38.8698L776.06 33.4498C781.68 43.5998 792.87 64.0198 798.4 74.1998C804.39 85.2098 815.39 105.76 821.25 116.83C817.12 124.14 809.61 137.27 805.39 144.54C790.52 170.28 774.84 196.95 759.15 222.17C763.53 213.13 768.03 204.15 772.56 195.19L779.39 181.77C788.16 164.7 798.31 145.38 807.32 128.42L814.45 115.16V118.41C804.27 100.38 790.58 75.5898 780.68 57.4098C778.64 53.6198 768.52 34.9798 766.65 31.5098L772.83 31.5498C789.24 31.6398 808.43 31.8998 824.83 32.1098C831.73 46.5598 841.57 66.9498 848.23 81.3198L844.79 81.2398C846.9 77.6998 849.06 74.1798 851.2 70.6498C857.14 60.8298 864.6 48.6998 870.72 39.0498L870.73 39.0398Z" fill="white"/>
<path d="M820.51 198.82C828.17 181.86 836.52 164.18 844.58 147.38L846.44 143.55C847.65 146.14 852.78 157.18 854.09 159.99C858.05 168.44 867.3 188.81 871.31 197.55L868.4 195.64C877.41 195.54 900.5 195.29 909.21 195.21L922.81 195.14L919.56 200.57C913.74 189.81 902.13 168.18 896.39 157.38C890.65 146.6 879.22 124.83 873.6 113.99L872.77 112.4L873.57 110.88C882.8 93.36 893.99 72.56 903.49 55.19C913.31 37.25 924.15 17.65 934.38 0C928.13 13.82 920.86 29.19 914.29 42.98C903.32 65.83 890.9 91.3 879.51 113.94L879.48 110.83C895.44 139.71 913.51 173.41 928.94 202.54C910.27 202.54 885.06 202.14 866.25 201.98C859.86 186.44 850.68 164.58 844.51 149.13L848.2 149.25C845.95 153.41 843.66 157.55 841.37 161.69C834.76 173.72 827.32 186.98 820.5 198.82H820.51Z" fill="white"/>
</g>
<defs>
<clipPath id="clip0_67_101">
<rect width="934.37" height="222.16" fill="white"/>
</clipPath>
</defs>
</svg>
